<svg width="24" height="24" viewBox="0 0 24 24" fill="none" xmlns="http://www.w3.org/2000/svg">
<path d="M2.80408 15.4775C2.80408 15.4775 2.94608 17.2155 2.97908 17.7635C3.02308 18.4985 3.30708 19.3195 3.78108 19.8895C4.45008 20.6975 5.23808 20.9825 6.29008 20.9845C7.52708 20.9865 16.5221 20.9865 17.7591 20.9845C18.8111 20.9825 19.5991 20.6975 20.2681 19.8895C20.7421 19.3195 21.0261 18.4985 21.0711 17.7635C21.1031 17.2155 21.2451 15.4775 21.2451 15.4775" stroke="#53545C" stroke-width="1.5" stroke-linecap="round" stroke-linejoin="round"/>
<path d="M8.49597 5.32998V4.95898C8.49597 3.73898 9.48397 2.75098 10.704 2.75098H13.286C14.505 2.75098 15.494 3.73898 15.494 4.95898L15.495 5.32998" stroke="#53545C" stroke-width="1.5" stroke-linecap="round" stroke-linejoin="round"/>
<path d="M11.995 16.6788V15.3848" stroke="#53545C" stroke-width="1.5" stroke-linecap="round" stroke-linejoin="round"/>
<path fill-rule="evenodd" clip-rule="evenodd" d="M2.74988 8.39003V11.857C4.66788 13.122 6.96588 14.008 9.48788 14.359C9.78988 13.258 10.7829 12.451 11.9899 12.451C13.1779 12.451 14.1909 13.258 14.4729 14.369C17.0049 14.018 19.3119 13.132 21.2399 11.857V8.39003C21.2399 6.69603 19.8769 5.33203 18.1829 5.33203H5.81688C4.12288 5.33203 2.74988 6.69603 2.74988 8.39003Z" stroke="#53545C" stroke-width="1.5" stroke-linecap="round" stroke-linejoin="round"/>
</svg>
