<svg width="24" height="24" viewBox="0 0 24 24" fill="none" xmlns="http://www.w3.org/2000/svg">
<g id="AppWindow">
<path id="Vector" d="M20.25 3.375H3.75C3.25272 3.375 2.77581 3.57254 2.42417 3.92417C2.07254 4.27581 1.875 4.75272 1.875 5.25V18.75C1.875 19.2473 2.07254 19.7242 2.42417 20.0758C2.77581 20.4275 3.25272 20.625 3.75 20.625H20.25C20.7473 20.625 21.2242 20.4275 21.5758 20.0758C21.9275 19.7242 22.125 19.2473 22.125 18.75V5.25C22.125 4.75272 21.9275 4.27581 21.5758 3.92417C21.2242 3.57254 20.7473 3.375 20.25 3.375ZM19.875 18.375H4.125V5.625H19.875V18.375ZM5.625 8.625C5.625 8.32833 5.71297 8.03832 5.8778 7.79165C6.04262 7.54497 6.27689 7.35271 6.55097 7.23918C6.82506 7.12565 7.12666 7.09594 7.41764 7.15382C7.70861 7.2117 7.97588 7.35456 8.18566 7.56434C8.39544 7.77412 8.5383 8.04139 8.59618 8.33236C8.65406 8.62334 8.62435 8.92494 8.51082 9.19903C8.39729 9.47311 8.20503 9.70738 7.95835 9.8722C7.71168 10.037 7.42167 10.125 7.125 10.125C6.72718 10.125 6.34564 9.96696 6.06434 9.68566C5.78304 9.40436 5.625 9.02282 5.625 8.625ZM10.125 8.625C10.125 8.32833 10.213 8.03832 10.3778 7.79165C10.5426 7.54497 10.7769 7.35271 11.051 7.23918C11.3251 7.12565 11.6267 7.09594 11.9176 7.15382C12.2086 7.2117 12.4759 7.35456 12.6857 7.56434C12.8954 7.77412 13.0383 8.04139 13.0962 8.33236C13.1541 8.62334 13.1244 8.92494 13.0108 9.19903C12.8973 9.47311 12.705 9.70738 12.4584 9.8722C12.2117 10.037 11.9217 10.125 11.625 10.125C11.2272 10.125 10.8456 9.96696 10.5643 9.68566C10.283 9.40436 10.125 9.02282 10.125 8.625Z" fill="#1C1C1C"/>
</g>
</svg>
