<svg width="14" height="14" viewBox="0 0 14 14" fill="none" xmlns="http://www.w3.org/2000/svg">
<g id="Icon">
<path id="Vector" d="M12.4688 5.6875C12.4688 5.86155 12.3996 6.02847 12.2765 6.15154C12.1535 6.27461 11.9865 6.34375 11.8125 6.34375C11.6385 6.34375 11.4715 6.27461 11.3485 6.15154C11.2254 6.02847 11.1562 5.86155 11.1562 5.6875V3.77344L7.9018 7.02789C7.77851 7.15117 7.6113 7.22043 7.43695 7.22043C7.2626 7.22043 7.09539 7.15117 6.97211 7.02789C6.84882 6.90461 6.77956 6.7374 6.77956 6.56305C6.77956 6.3887 6.84882 6.22149 6.97211 6.0982L10.2266 2.84375H8.3125C8.13845 2.84375 7.97153 2.77461 7.84846 2.65154C7.72539 2.52847 7.65625 2.36155 7.65625 2.1875C7.65625 2.01345 7.72539 1.84653 7.84846 1.72346C7.97153 1.60039 8.13845 1.53125 8.3125 1.53125H11.8125C11.9865 1.53125 12.1535 1.60039 12.2765 1.72346C12.3996 1.84653 12.4688 2.01345 12.4688 2.1875V5.6875ZM10.0625 7C9.88845 7 9.72153 7.06914 9.59846 7.19221C9.47539 7.31528 9.40625 7.4822 9.40625 7.65625V11.1562H2.84375V4.59375H6.34375C6.5178 4.59375 6.68472 4.52461 6.80779 4.40154C6.93086 4.27847 7 4.11155 7 3.9375C7 3.76345 6.93086 3.59653 6.80779 3.47346C6.68472 3.35039 6.5178 3.28125 6.34375 3.28125H2.625C2.33492 3.28125 2.05672 3.39648 1.8516 3.6016C1.64648 3.80672 1.53125 4.08492 1.53125 4.375V11.375C1.53125 11.6651 1.64648 11.9433 1.8516 12.1484C2.05672 12.3535 2.33492 12.4688 2.625 12.4688H9.625C9.91508 12.4688 10.1933 12.3535 10.3984 12.1484C10.6035 11.9433 10.7188 11.6651 10.7188 11.375V7.65625C10.7188 7.4822 10.6496 7.31528 10.5265 7.19221C10.4035 7.06914 10.2365 7 10.0625 7Z" fill="#005433"/>
</g>
</svg>
