<svg width="20" height="20" viewBox="0 0 20 20" fill="none" xmlns="http://www.w3.org/2000/svg">
<g id="edit-05" clip-path="url(#clip0_76_21534)">
<path id="Icon" d="M9.16699 3.33417H5.66699C4.26686 3.33417 3.5668 3.33417 3.03202 3.60666C2.56161 3.84634 2.17916 4.22879 1.93948 4.6992C1.66699 5.23398 1.66699 5.93404 1.66699 7.33417V14.3342C1.66699 15.7343 1.66699 16.4344 1.93948 16.9691C2.17916 17.4396 2.56161 17.822 3.03202 18.0617C3.5668 18.3342 4.26686 18.3342 5.66699 18.3342H12.667C14.0671 18.3342 14.7672 18.3342 15.302 18.0617C15.7724 17.822 16.1548 17.4396 16.3945 16.9691C16.667 16.4344 16.667 15.7343 16.667 14.3342V10.8342M6.66697 13.3342H8.06242C8.47007 13.3342 8.6739 13.3342 8.86571 13.2881C9.03577 13.2473 9.19835 13.18 9.34747 13.0886C9.51566 12.9855 9.65979 12.8414 9.94804 12.5531L17.917 4.58417C18.6073 3.89382 18.6073 2.77453 17.917 2.08417C17.2266 1.39382 16.1073 1.39382 15.417 2.08417L7.44802 10.0531C7.15977 10.3414 7.01564 10.4855 6.91257 10.6537C6.82119 10.8028 6.75385 10.9654 6.71302 11.1355C6.66697 11.3273 6.66697 11.5311 6.66697 11.9387V13.3342Z" stroke="#005D7F" stroke-width="2" stroke-linecap="round" stroke-linejoin="round"/>
</g>
<defs>
<clipPath id="clip0_76_21534">
<rect width="20" height="20" fill="white"/>
</clipPath>
</defs>
</svg>
