<svg width="113" height="19" viewBox="0 0 113 19" fill="none" xmlns="http://www.w3.org/2000/svg">
<path d="M0.69906 17.7969V0.570764H3.81961V15.181H11.4065V17.7969H0.69906ZM19.6158 18.0492C18.3541 18.0492 17.2607 17.7716 16.3355 17.2165C15.4102 16.6614 14.6925 15.8847 14.1822 14.8866C13.6775 13.8885 13.4252 12.7221 13.4252 11.3876C13.4252 10.053 13.6775 8.88382 14.1822 7.88009C14.6925 6.87635 15.4102 6.09691 16.3355 5.54178C17.2607 4.98664 18.3541 4.70907 19.6158 4.70907C20.8775 4.70907 21.971 4.98664 22.8962 5.54178C23.8214 6.09691 24.5364 6.87635 25.041 7.88009C25.5513 8.88382 25.8065 10.053 25.8065 11.3876C25.8065 12.7221 25.5513 13.8885 25.041 14.8866C24.5364 15.8847 23.8214 16.6614 22.8962 17.2165C21.971 17.7716 20.8775 18.0492 19.6158 18.0492ZM19.6326 15.61C20.3168 15.61 20.8887 15.4221 21.3485 15.0464C21.8083 14.6651 22.1504 14.1548 22.3747 13.5156C22.6046 12.8763 22.7195 12.1642 22.7195 11.3791C22.7195 10.5885 22.6046 9.87354 22.3747 9.23429C22.1504 8.58943 21.8083 8.07635 21.3485 7.69504C20.8887 7.31373 20.3168 7.12308 19.6326 7.12308C18.9317 7.12308 18.3485 7.31373 17.8831 7.69504C17.4233 8.07635 17.0784 8.58943 16.8485 9.23429C16.6242 9.87354 16.5121 10.5885 16.5121 11.3791C16.5121 12.1642 16.6242 12.8763 16.8485 13.5156C17.0784 14.1548 17.4233 14.6651 17.8831 15.0464C18.3485 15.4221 18.9317 15.61 19.6326 15.61ZM31.4356 10.2268V17.7969H28.3908V0.570764H31.3684V7.07261H31.5198C31.8226 6.34364 32.2908 5.76888 32.9244 5.34832C33.5637 4.92215 34.3768 4.70907 35.3637 4.70907C36.2609 4.70907 37.0431 4.89692 37.7104 5.27262C38.3777 5.64832 38.8936 6.19785 39.258 6.92121C39.6281 7.64457 39.8132 8.52775 39.8132 9.57073V17.7969H36.7683V10.0418C36.7683 9.1726 36.544 8.49691 36.0954 8.01466C35.6524 7.52682 35.03 7.28289 34.2282 7.28289C33.6898 7.28289 33.2076 7.40065 32.7814 7.63616C32.3609 7.86607 32.03 8.19971 31.7889 8.63709C31.5534 9.07447 31.4356 9.60438 31.4356 10.2268ZM46.6347 18.0576C45.816 18.0576 45.0786 17.9118 44.4225 17.6202C43.772 17.323 43.2562 16.8857 42.8749 16.3081C42.4992 15.7305 42.3113 15.0184 42.3113 14.1717C42.3113 13.4427 42.4459 12.8399 42.715 12.3632C42.9842 11.8866 43.3515 11.5053 43.8169 11.2193C44.2823 10.9333 44.8066 10.7175 45.3898 10.5717C45.9786 10.4203 46.587 10.3109 47.215 10.2436C47.972 10.1651 48.586 10.095 49.0571 10.0333C49.5281 9.96606 49.8702 9.86513 50.0832 9.73055C50.3019 9.59036 50.4113 9.37447 50.4113 9.08289V9.03242C50.4113 8.39878 50.2234 7.90812 49.8477 7.56046C49.472 7.2128 48.9309 7.03897 48.2244 7.03897C47.4786 7.03897 46.887 7.20158 46.4496 7.52682C46.0178 7.85205 45.7262 8.23616 45.5748 8.67915L42.7319 8.27541C42.9562 7.49037 43.3263 6.83429 43.8421 6.30719C44.358 5.77448 44.9889 5.37636 45.7347 5.11281C46.4804 4.84365 47.3047 4.70907 48.2075 4.70907C48.83 4.70907 49.4496 4.78197 50.0664 4.92776C50.6832 5.07355 51.2468 5.31467 51.7571 5.65112C52.2673 5.98196 52.6767 6.43336 52.9851 7.00532C53.2991 7.57728 53.4561 8.29223 53.4561 9.15017V17.7969H50.529V16.0221H50.4281C50.2431 16.381 49.9823 16.7174 49.6459 17.0315C49.315 17.3399 48.8973 17.5894 48.3926 17.7801C47.8935 17.9651 47.3075 18.0576 46.6347 18.0576ZM47.4253 15.8202C48.0365 15.8202 48.5664 15.6997 49.015 15.4586C49.4636 15.2118 49.8085 14.8866 50.0496 14.4829C50.2963 14.0791 50.4197 13.6389 50.4197 13.1623V11.6399C50.3244 11.7184 50.1617 11.7913 49.9318 11.8586C49.7075 11.9259 49.4552 11.9847 49.1748 12.0352C48.8945 12.0857 48.6169 12.1305 48.3421 12.1698C48.0674 12.209 47.829 12.2427 47.6272 12.2707C47.173 12.3324 46.7664 12.4333 46.4076 12.5735C46.0487 12.7137 45.7655 12.91 45.558 13.1623C45.3505 13.409 45.2468 13.7287 45.2468 14.1212C45.2468 14.6819 45.4515 15.1053 45.8608 15.3913C46.2702 15.6773 46.7917 15.8202 47.4253 15.8202ZM59.1841 17.7969L55.5337 4.87729H58.6374L60.9084 13.9614H61.0262L63.3477 4.87729H66.4178L68.7393 13.9109H68.8654L71.1028 4.87729H74.2149L70.5561 17.7969H67.3851L64.9626 9.06606H64.786L62.3636 17.7969H59.1841ZM80.0586 18.0576C79.2399 18.0576 78.5025 17.9118 77.8465 17.6202C77.196 17.323 76.6801 16.8857 76.2988 16.3081C75.9231 15.7305 75.7353 15.0184 75.7353 14.1717C75.7353 13.4427 75.8698 12.8399 76.139 12.3632C76.4082 11.8866 76.7754 11.5053 77.2409 11.2193C77.7063 10.9333 78.2306 10.7175 78.8138 10.5717C79.4025 10.4203 80.0109 10.3109 80.639 10.2436C81.396 10.1651 82.01 10.095 82.481 10.0333C82.9521 9.96606 83.2941 9.86513 83.5072 9.73055C83.7259 9.59036 83.8352 9.37447 83.8352 9.08289V9.03242C83.8352 8.39878 83.6474 7.90812 83.2717 7.56046C82.896 7.2128 82.3549 7.03897 81.6483 7.03897C80.9025 7.03897 80.3109 7.20158 79.8736 7.52682C79.4418 7.85205 79.1502 8.23616 78.9988 8.67915L76.1558 8.27541C76.3801 7.49037 76.7502 6.83429 77.2661 6.30719C77.782 5.77448 78.4128 5.37636 79.1586 5.11281C79.9044 4.84365 80.7287 4.70907 81.6315 4.70907C82.2539 4.70907 82.8736 4.78197 83.4904 4.92776C84.1072 5.07355 84.6707 5.31467 85.181 5.65112C85.6913 5.98196 86.1006 6.43336 86.4091 7.00532C86.7231 7.57728 86.8801 8.29223 86.8801 9.15017V17.7969H83.953V16.0221H83.8521C83.667 16.381 83.4063 16.7174 83.0698 17.0315C82.739 17.3399 82.3212 17.5894 81.8165 17.7801C81.3175 17.9651 80.7315 18.0576 80.0586 18.0576ZM80.8493 15.8202C81.4605 15.8202 81.9904 15.6997 82.439 15.4586C82.8876 15.2118 83.2324 14.8866 83.4735 14.4829C83.7203 14.0791 83.8436 13.6389 83.8436 13.1623V11.6399C83.7483 11.7184 83.5857 11.7913 83.3558 11.8586C83.1315 11.9259 82.8792 11.9847 82.5988 12.0352C82.3184 12.0857 82.0408 12.1305 81.7661 12.1698C81.4913 12.209 81.253 12.2427 81.0511 12.2707C80.5969 12.3324 80.1904 12.4333 79.8315 12.5735C79.4726 12.7137 79.1895 12.91 78.982 13.1623C78.7745 13.409 78.6708 13.7287 78.6708 14.1212C78.6708 14.6819 78.8754 15.1053 79.2848 15.3913C79.6941 15.6773 80.2156 15.8202 80.8493 15.8202ZM92.9866 0.570764V17.7969H89.9418V0.570764H92.9866ZM99.1625 0.570764V17.7969H96.1177V0.570764H99.1625ZM106.011 18.0576C105.193 18.0576 104.455 17.9118 103.799 17.6202C103.149 17.323 102.633 16.8857 102.252 16.3081C101.876 15.7305 101.688 15.0184 101.688 14.1717C101.688 13.4427 101.823 12.8399 102.092 12.3632C102.361 11.8866 102.728 11.5053 103.194 11.2193C103.659 10.9333 104.183 10.7175 104.766 10.5717C105.355 10.4203 105.964 10.3109 106.592 10.2436C107.349 10.1651 107.963 10.095 108.434 10.0333C108.905 9.96606 109.247 9.86513 109.46 9.73055C109.679 9.59036 109.788 9.37447 109.788 9.08289V9.03242C109.788 8.39878 109.6 7.90812 109.224 7.56046C108.849 7.2128 108.308 7.03897 107.601 7.03897C106.855 7.03897 106.264 7.20158 105.826 7.52682C105.395 7.85205 105.103 8.23616 104.952 8.67915L102.109 8.27541C102.333 7.49037 102.703 6.83429 103.219 6.30719C103.735 5.77448 104.366 5.37636 105.111 5.11281C105.857 4.84365 106.681 4.70907 107.584 4.70907C108.207 4.70907 108.826 4.78197 109.443 4.92776C110.06 5.07355 110.623 5.31467 111.134 5.65112C111.644 5.98196 112.053 6.43336 112.362 7.00532C112.676 7.57728 112.833 8.29223 112.833 9.15017V17.7969H109.906V16.0221H109.805C109.62 16.381 109.359 16.7174 109.023 17.0315C108.692 17.3399 108.274 17.5894 107.769 17.7801C107.27 17.9651 106.684 18.0576 106.011 18.0576ZM106.802 15.8202C107.413 15.8202 107.943 15.6997 108.392 15.4586C108.84 15.2118 109.185 14.8866 109.426 14.4829C109.673 14.0791 109.796 13.6389 109.796 13.1623V11.6399C109.701 11.7184 109.538 11.7913 109.309 11.8586C109.084 11.9259 108.832 11.9847 108.551 12.0352C108.271 12.0857 107.994 12.1305 107.719 12.1698C107.444 12.209 107.206 12.2427 107.004 12.2707C106.55 12.3324 106.143 12.4333 105.784 12.5735C105.425 12.7137 105.142 12.91 104.935 13.1623C104.727 13.409 104.623 13.7287 104.623 14.1212C104.623 14.6819 104.828 15.1053 105.237 15.3913C105.647 15.6773 106.168 15.8202 106.802 15.8202Z" fill="url(#paint0_linear_670_10494)"/>
<defs>
<linearGradient id="paint0_linear_670_10494" x1="57" y1="-3.20313" x2="57" y2="20.7969" gradientUnits="userSpaceOnUse">
<stop offset="0.359375" stop-color="#D6D7D6"/>
<stop offset="0.5625" stop-color="#E3E4E2" stop-opacity="0.6"/>
<stop offset="0.953125" stop-color="#FDFFFB" stop-opacity="0.66"/>
</linearGradient>
</defs>
</svg>
