<svg width="20" height="20" viewBox="0 0 20 20" fill="none" xmlns="http://www.w3.org/2000/svg">
<path d="M5.71436 17.1434H16.5858C16.9606 17.145 17.3197 17.2938 17.5858 17.5577L19.2858 19.2863M5.71436 17.1434C5.72141 17.0245 5.72141 16.9052 5.71436 16.7863C5.66811 16.1442 5.37453 15.545 4.89544 15.115C4.41634 14.685 3.78909 14.4576 3.14572 14.4807C2.50235 14.5039 1.89306 14.7757 1.44609 15.2391C0.999122 15.7024 0.749349 16.3211 0.749349 16.9648C0.749349 17.6086 0.999122 18.2273 1.44609 18.6906C1.89306 19.154 2.50235 19.4258 3.14572 19.449C3.78909 19.4721 4.41634 19.2447 4.89544 18.8147C5.37453 18.3847 5.66811 17.7855 5.71436 17.1434ZM0.714355 0.714844H2.14293C2.52181 0.714844 2.88517 0.865354 3.15308 1.13326C3.42099 1.40117 3.5715 1.76453 3.5715 2.14342V14.2863M12.1429 10.0006H13.5715" stroke="#2A333E" stroke-width="2" stroke-linecap="round" stroke-linejoin="round"/>
</svg>
