<svg width="24" height="24" viewBox="0 0 24 24" fill="none" xmlns="http://www.w3.org/2000/svg">
<g id="ArrowLeft">
<path id="Vector" d="M20.9996 12.0004C20.9996 12.1993 20.9206 12.3901 20.7799 12.5307C20.6393 12.6714 20.4485 12.7504 20.2496 12.7504H5.55993L11.0302 18.2198C11.0999 18.2895 11.1552 18.3722 11.1929 18.4632C11.2306 18.5543 11.25 18.6519 11.25 18.7504C11.25 18.849 11.2306 18.9465 11.1929 19.0376C11.1552 19.1286 11.0999 19.2114 11.0302 19.281C10.9606 19.3507 10.8778 19.406 10.7868 19.4437C10.6957 19.4814 10.5982 19.5008 10.4996 19.5008C10.4011 19.5008 10.3035 19.4814 10.2124 19.4437C10.1214 19.406 10.0387 19.3507 9.96899 19.281L3.21899 12.531C3.14926 12.4614 3.09394 12.3787 3.05619 12.2876C3.01845 12.1966 2.99902 12.099 2.99902 12.0004C2.99902 11.9019 3.01845 11.8043 3.05619 11.7132C3.09394 11.6222 3.14926 11.5394 3.21899 11.4698L9.96899 4.71979C10.1097 4.57906 10.3006 4.5 10.4996 4.5C10.6986 4.5 10.8895 4.57906 11.0302 4.71979C11.171 4.86052 11.25 5.05139 11.25 5.25042C11.25 5.44944 11.171 5.64031 11.0302 5.78104L5.55993 11.2504H20.2496C20.4485 11.2504 20.6393 11.3294 20.7799 11.4701C20.9206 11.6107 20.9996 11.8015 20.9996 12.0004Z" fill="#2A3143"/>
</g>
</svg>
