<svg width="21" height="21" viewBox="0 0 21 21" fill="none" xmlns="http://www.w3.org/2000/svg">
<path opacity="0.4" d="M20.8594 10.9893C20.8594 16.5043 16.3734 20.9893 10.8594 20.9893C5.34538 20.9893 0.859375 16.5043 0.859375 10.9893C0.859375 5.47526 5.34538 0.989258 10.8594 0.989258C16.3734 0.989258 20.8594 5.47526 20.8594 10.9893" fill="#989898"/>
<path d="M15.0795 9.54723C15.0795 9.73823 15.0065 9.93023 14.8605 10.0762L11.3905 13.5632C11.2495 13.7042 11.0585 13.7832 10.8585 13.7832C10.6595 13.7832 10.4685 13.7042 10.3275 13.5632L6.85547 10.0762C6.56347 9.78323 6.56347 9.30923 6.85747 9.01623C7.15147 8.72423 7.62647 8.72523 7.91847 9.01823L10.8585 11.9712L13.7985 9.01823C14.0905 8.72523 14.5645 8.72423 14.8585 9.01623C15.0065 9.16223 15.0795 9.35523 15.0795 9.54723" fill="white"/>
</svg>
