<svg width="20" height="20" viewBox="0 0 20 20" fill="none" xmlns="http://www.w3.org/2000/svg">
<path opacity="0.4" d="M20 9.99988C20 15.5149 15.514 19.9999 10 19.9999C4.486 19.9999 0 15.5149 0 9.99988C0 4.48588 4.486 -0.00012207 10 -0.00012207C15.514 -0.00012207 20 4.48588 20 9.99988Z" fill="#131313"/>
<path d="M14.224 8.55748C14.224 8.74848 14.151 8.94048 14.005 9.08648L10.535 12.5735C10.394 12.7145 10.203 12.7935 10.003 12.7935C9.804 12.7935 9.613 12.7145 9.472 12.5735L6 9.08648C5.708 8.79348 5.708 8.31948 6.002 8.02648C6.296 7.73448 6.771 7.73548 7.063 8.02848L10.003 10.9815L12.943 8.02848C13.235 7.73548 13.709 7.73448 14.003 8.02648C14.151 8.17248 14.224 8.36548 14.224 8.55748Z" fill="#131313"/>
</svg>
