<svg width="34" height="34" viewBox="0 0 34 34" fill="none" xmlns="http://www.w3.org/2000/svg">
<path opacity="0.4" d="M23.808 0.33316L10.1946 0.33316C4.2963 0.33316 0.334636 4.12649 0.334636 9.77483L0.334636 24.2248C0.334636 29.8732 4.2963 33.6665 10.1946 33.6665L23.808 33.6665C29.7046 33.6665 33.668 29.8715 33.668 24.2232L33.668 9.77483C33.668 4.12649 29.7046 0.33316 23.808 0.33316" fill="#9797AA"/>
<path d="M15.5764 9.86765L9.30135 16.1143C8.82969 16.5843 8.82969 17.416 9.30135 17.8877L15.5764 24.1343C16.0664 24.621 16.858 24.6193 17.3447 24.1293C17.8314 23.6393 17.8314 22.8493 17.3414 22.361L13.213 18.2493H23.8047C24.4964 18.2493 25.0547 17.6893 25.0547 16.9993C25.0547 16.3093 24.4964 15.7493 23.8047 15.7493L13.213 15.7493L17.3414 11.6393C17.5864 11.3943 17.708 11.0743 17.708 10.7527C17.708 10.4343 17.5864 10.1143 17.3447 9.87099C16.858 9.38265 16.0664 9.38099 15.5764 9.86765" fill="#9797AA"/>
</svg>
