<svg width="64" height="64" viewBox="0 0 64 64" fill="none" xmlns="http://www.w3.org/2000/svg">
<path opacity="0.4" d="M44.934 0.332977L19.0686 0.332977C7.86181 0.332977 0.334639 7.54031 0.334639 18.2721L0.334639 45.7271C0.334639 56.459 7.86181 63.6663 19.0686 63.6663L44.934 63.6663C56.1376 63.6663 63.668 56.4558 63.668 45.724L63.668 18.2721C63.668 7.54031 56.1376 0.332977 44.934 0.332977" fill="#9797AA"/>
<path d="M29.288 18.4485L17.3655 30.3172C16.4694 31.2102 16.4694 32.7903 17.3655 33.6865L29.288 45.5552C30.219 46.4798 31.7232 46.4767 32.6479 45.5457C33.5725 44.6147 33.5725 43.1137 32.6415 42.1858L24.7977 34.3737H44.9219C46.236 34.3737 47.2969 33.3097 47.2969 31.9987C47.2969 30.6877 46.236 29.6237 44.9219 29.6237L24.7977 29.6237L32.6415 21.8147C33.107 21.3492 33.3382 20.7412 33.3382 20.13C33.3382 19.5252 33.107 18.9172 32.6479 18.4548C31.7232 17.527 30.219 17.5238 29.288 18.4485" fill="#9797AA"/>
</svg>