<svg width="21" height="20" viewBox="0 0 21 20" fill="none" xmlns="http://www.w3.org/2000/svg">
<path opacity="0.4" fill-rule="evenodd" clip-rule="evenodd" d="M3.91016 18.4472C3.91016 17.6072 4.59016 16.9272 5.43016 16.9272C6.26016 16.9272 6.94016 17.6072 6.94016 18.4472C6.94016 19.2772 6.26016 19.9572 5.43016 19.9572C4.59016 19.9572 3.91016 19.2772 3.91016 18.4472ZM15.1602 18.4472C15.1602 17.6072 15.8402 16.9272 16.6802 16.9272C17.5102 16.9272 18.1902 17.6072 18.1902 18.4472C18.1902 19.2772 17.5102 19.9572 16.6802 19.9572C15.8402 19.9572 15.1602 19.2772 15.1602 18.4472Z" fill="#2A333E"/>
<path fill-rule="evenodd" clip-rule="evenodd" d="M18.1907 4.20767C18.8007 4.20767 19.2007 4.41767 19.6007 4.87767C20.0007 5.33767 20.0707 5.99767 19.9807 6.59667L19.0307 13.1567C18.8507 14.4177 17.7707 15.3467 16.5007 15.3467H5.59074C4.26074 15.3467 3.16074 14.3267 3.05074 13.0077L2.13074 2.10667L0.620742 1.84667C0.220742 1.77667 -0.0592579 1.38667 0.0107421 0.986668C0.0807421 0.576668 0.470742 0.306668 0.880742 0.366668L3.26574 0.726668C3.60574 0.787668 3.85574 1.06667 3.88574 1.40667L4.07574 3.64667C4.10574 3.96767 4.36574 4.20767 4.68574 4.20767H18.1907ZM12.1307 9.40667H14.9007C15.3207 9.40667 15.6507 9.06667 15.6507 8.65667C15.6507 8.23667 15.3207 7.90667 14.9007 7.90667H12.1307C11.7107 7.90667 11.3807 8.23667 11.3807 8.65667C11.3807 9.06667 11.7107 9.40667 12.1307 9.40667Z" fill="#2A333E"/>
</svg>
