<svg width="21" height="20" viewBox="0 0 21 20" fill="none" xmlns="http://www.w3.org/2000/svg">
<path opacity="0.4" fill-rule="evenodd" clip-rule="evenodd" d="M3.91016 18.4477C3.91016 17.6077 4.59016 16.9277 5.43016 16.9277C6.26016 16.9277 6.94016 17.6077 6.94016 18.4477C6.94016 19.2777 6.26016 19.9577 5.43016 19.9577C4.59016 19.9577 3.91016 19.2777 3.91016 18.4477ZM15.1602 18.4477C15.1602 17.6077 15.8402 16.9277 16.6802 16.9277C17.5102 16.9277 18.1902 17.6077 18.1902 18.4477C18.1902 19.2777 17.5102 19.9577 16.6802 19.9577C15.8402 19.9577 15.1602 19.2777 15.1602 18.4477Z" fill="#9797AA"/>
<path fill-rule="evenodd" clip-rule="evenodd" d="M18.1907 4.20871C18.8007 4.20871 19.2007 4.41871 19.6007 4.87871C20.0007 5.33871 20.0707 5.99871 19.9807 6.59771L19.0307 13.1577C18.8507 14.4187 17.7707 15.3477 16.5007 15.3477H5.59074C4.26074 15.3477 3.16074 14.3277 3.05074 13.0087L2.13074 2.10771L0.620742 1.84771C0.220742 1.77771 -0.0592579 1.38771 0.0107421 0.987705C0.0807421 0.577705 0.470742 0.307705 0.880742 0.367705L3.26574 0.727705C3.60574 0.788705 3.85574 1.06771 3.88574 1.40771L4.07574 3.64771C4.10574 3.96871 4.36574 4.20871 4.68574 4.20871H18.1907ZM12.1307 9.40771H14.9007C15.3207 9.40771 15.6507 9.06771 15.6507 8.65771C15.6507 8.23771 15.3207 7.90771 14.9007 7.90771H12.1307C11.7107 7.90771 11.3807 8.23771 11.3807 8.65771C11.3807 9.06771 11.7107 9.40771 12.1307 9.40771Z" fill="#9797AA"/>
</svg>
