<svg width="20" height="21" viewBox="0 0 20 21" fill="none" xmlns="http://www.w3.org/2000/svg">
<path fill-rule="evenodd" clip-rule="evenodd" d="M2.53852 0.858643H5.92449C7.32676 0.858643 8.46301 2.00449 8.46301 3.41861V6.83317C8.46301 8.24728 7.32676 9.39313 5.92449 9.39313H2.53852C1.13626 9.39313 0 8.24728 0 6.83317V3.41861C0 2.00449 1.13626 0.858643 2.53852 0.858643ZM2.53852 12.3242H5.92449C7.32676 12.3242 8.46301 13.47 8.46301 14.8841V18.2987C8.46301 19.7118 7.32676 20.8586 5.92449 20.8586H2.53852C1.13626 20.8586 0 19.7118 0 18.2987V14.8841C0 13.47 1.13626 12.3242 2.53852 12.3242ZM17.4615 12.3242H14.0755C12.6732 12.3242 11.537 13.47 11.537 14.8841V18.2987C11.537 19.7118 12.6732 20.8586 14.0755 20.8586H17.4615C18.8637 20.8586 20 19.7118 20 18.2987V14.8841C20 13.47 18.8637 12.3242 17.4615 12.3242Z" fill="#9797AA"/>
</svg>
