<svg width="18" height="19" viewBox="0 0 18 19" fill="none" xmlns="http://www.w3.org/2000/svg">
<path d="M6 18.8587H2C0.9 18.8587 0 17.9587 0 16.8587V2.85867C0 1.75867 0.9 0.858673 2 0.858673H6C7.1 0.858673 8 1.75867 8 2.85867V16.8587C8 17.9587 7.1 18.8587 6 18.8587ZM12 18.8587H16C17.1 18.8587 18 17.9587 18 16.8587V11.8587C18 10.7587 17.1 9.85867 16 9.85867H12C10.9 9.85867 10 10.7587 10 11.8587V16.8587C10 17.9587 10.9 18.8587 12 18.8587ZM18 5.85867V2.85867C18 1.75867 17.1 0.858673 16 0.858673H12C10.9 0.858673 10 1.75867 10 2.85867V5.85867C10 6.95867 10.9 7.85867 12 7.85867H16C17.1 7.85867 18 6.95867 18 5.85867Z" fill="#2A333E"/>
</svg>
