<svg width="36" height="36" viewBox="0 0 36 36" fill="none" xmlns="http://www.w3.org/2000/svg">
<path opacity="0.4" d="M29.4654 14.2326C29.4654 14.3346 28.666 24.4458 28.2094 28.7011C27.9235 31.3125 26.24 32.8965 23.7147 32.9415C21.7745 32.985 19.8751 33 18.0063 33C16.0223 33 14.0821 32.985 12.1987 32.9415C9.75813 32.883 8.07318 31.2675 7.80184 28.7011C7.33209 24.4308 6.54724 14.3346 6.53266 14.2326C6.51807 13.9251 6.61727 13.6327 6.81859 13.3957C7.01699 13.1767 7.30292 13.0447 7.60344 13.0447H28.4092C28.7083 13.0447 28.9796 13.1767 29.1941 13.3957C29.394 13.6327 29.4946 13.9251 29.4654 14.2326" fill="#EF5D5D"/>
<path d="M31.5 8.96529C31.5 8.34881 31.0142 7.86583 30.4307 7.86583H26.0571C25.1672 7.86583 24.394 7.23285 24.1956 6.34038L23.9506 5.24692C23.6077 3.92547 22.4246 3 21.0971 3H14.9044C13.5622 3 12.3908 3.92547 12.0349 5.31892L11.8058 6.34188C11.606 7.23285 10.8328 7.86583 9.94435 7.86583H5.57078C4.98579 7.86583 4.5 8.34881 4.5 8.96529V9.53527C4.5 10.1367 4.98579 10.6347 5.57078 10.6347H30.4307C31.0142 10.6347 31.5 10.1367 31.5 9.53527V8.96529Z" fill="#EF5D5D"/>
</svg>
