<svg width="14" height="16" viewBox="0 0 14 16" fill="none" xmlns="http://www.w3.org/2000/svg">
<g id="Delete">
<path id="Fill 1" opacity="0.4" d="M12.7288 6.11058C12.7288 6.16158 12.3291 11.2172 12.1008 13.3448C11.9578 14.6505 11.1161 15.4425 9.85346 15.465C8.88334 15.4868 7.93364 15.4943 6.99926 15.4943C6.00726 15.4943 5.03714 15.4868 4.09547 15.465C2.87516 15.4358 2.03268 14.628 1.89701 13.3448C1.66214 11.2097 1.26972 6.16158 1.26242 6.11058C1.25513 5.95684 1.30473 5.81059 1.40539 5.6921C1.50459 5.5826 1.64755 5.5166 1.79781 5.5166H12.2007C12.3502 5.5166 12.4859 5.5826 12.5931 5.6921C12.6931 5.81059 12.7434 5.95684 12.7288 6.11058Z" fill="#F23A3A"/>
<path id="Fill 4" d="M13.7461 3.47679C13.7461 3.16855 13.5032 2.92706 13.2114 2.92706H11.0246C10.5797 2.92706 10.1931 2.61057 10.0939 2.16433L9.97137 1.6176C9.79996 0.956874 9.20841 0.494141 8.54464 0.494141H5.44828C4.77722 0.494141 4.1915 0.956874 4.01352 1.6536L3.899 2.16508C3.79907 2.61057 3.41248 2.92706 2.96827 2.92706H0.781484C0.488989 2.92706 0.246094 3.16855 0.246094 3.47679V3.76178C0.246094 4.06252 0.488989 4.31151 0.781484 4.31151H13.2114C13.5032 4.31151 13.7461 4.06252 13.7461 3.76178V3.47679Z" fill="#F23A3A"/>
</g>
</svg>
