<svg width="32" height="32" viewBox="0 0 32 32" fill="none" xmlns="http://www.w3.org/2000/svg">
<g id="dots-vertical">
<g id="Icon">
<path d="M15.9998 17.332C16.7362 17.332 17.3332 16.7351 17.3332 15.9987C17.3332 15.2623 16.7362 14.6654 15.9998 14.6654C15.2635 14.6654 14.6665 15.2623 14.6665 15.9987C14.6665 16.7351 15.2635 17.332 15.9998 17.332Z" stroke="#565656" stroke-width="2" stroke-linecap="round" stroke-linejoin="round"/>
<path d="M15.9998 7.9987C16.7362 7.9987 17.3332 7.40174 17.3332 6.66536C17.3332 5.92898 16.7362 5.33203 15.9998 5.33203C15.2635 5.33203 14.6665 5.92898 14.6665 6.66536C14.6665 7.40174 15.2635 7.9987 15.9998 7.9987Z" stroke="#565656" stroke-width="2" stroke-linecap="round" stroke-linejoin="round"/>
<path d="M15.9998 26.6654C16.7362 26.6654 17.3332 26.0684 17.3332 25.332C17.3332 24.5957 16.7362 23.9987 15.9998 23.9987C15.2635 23.9987 14.6665 24.5957 14.6665 25.332C14.6665 26.0684 15.2635 26.6654 15.9998 26.6654Z" stroke="#565656" stroke-width="2" stroke-linecap="round" stroke-linejoin="round"/>
</g>
</g>
</svg>
