<svg width="21" height="20" viewBox="0 0 21 20" fill="none" xmlns="http://www.w3.org/2000/svg">
<g id="edit-05" clip-path="url(#clip0_592_7920)">
<path id="Icon" d="M9.32812 3.33417H5.82813C4.42799 3.33417 3.72793 3.33417 3.19315 3.60666C2.72274 3.84634 2.34029 4.22879 2.10061 4.6992C1.82812 5.23398 1.82812 5.93404 1.82812 7.33417V14.3342C1.82812 15.7343 1.82812 16.4344 2.10061 16.9691C2.34029 17.4396 2.72274 17.822 3.19315 18.0617C3.72793 18.3342 4.42799 18.3342 5.82812 18.3342H12.8281C14.2283 18.3342 14.9283 18.3342 15.4631 18.0617C15.9335 17.822 16.316 17.4396 16.5556 16.9691C16.8281 16.4344 16.8281 15.7343 16.8281 14.3342V10.8342M6.8281 13.3342H8.22356C8.63121 13.3342 8.83503 13.3342 9.02684 13.2881C9.19691 13.2473 9.35948 13.18 9.5086 13.0886C9.67679 12.9855 9.82092 12.8414 10.1092 12.5531L18.0781 4.58417C18.7685 3.89382 18.7685 2.77453 18.0781 2.08417C17.3878 1.39382 16.2685 1.39382 15.5781 2.08417L7.60915 10.0531C7.3209 10.3414 7.17677 10.4855 7.0737 10.6537C6.98232 10.8028 6.91498 10.9654 6.87415 11.1355C6.8281 11.3273 6.8281 11.5311 6.8281 11.9387V13.3342Z" stroke="#005D7F" stroke-width="2" stroke-linecap="round" stroke-linejoin="round"/>
</g>
<defs>
<clipPath id="clip0_592_7920">
<rect width="20" height="20" fill="white" transform="translate(0.161133)"/>
</clipPath>
</defs>
</svg>
