<svg width="56" height="56" viewBox="0 0 56 56" fill="none" xmlns="http://www.w3.org/2000/svg">
<path d="M18.6667 7H18.2C14.2796 7 12.3194 7 10.8221 7.76295C9.50493 8.43407 8.43407 9.50493 7.76295 10.8221C7 12.3194 7 14.2796 7 18.2V18.6667M18.6667 49H18.2C14.2796 49 12.3194 49 10.8221 48.237C9.50493 47.5659 8.43407 46.4951 7.76295 45.1779C7 43.6805 7 41.7204 7 37.8V37.3333M49 18.6667V18.2C49 14.2796 49 12.3194 48.237 10.8221C47.5659 9.50493 46.4951 8.43407 45.1779 7.76295C43.6805 7 41.7204 7 37.8 7H37.3333M49 37.3333V37.8C49 41.7204 49 43.6805 48.237 45.1779C47.5659 46.4951 46.4951 47.5659 45.1779 48.237C43.6805 49 41.7204 49 37.8 49H37.3333M17.5 18.6667V22.1667M38.5 18.6667V22.1667M25.6667 29.4002C27.5333 29.4002 29.1667 27.7669 29.1667 25.9002V18.6667M35.4671 35.4666C31.2671 39.6666 24.5005 39.6666 20.3005 35.4666" stroke="black" stroke-width="2" stroke-linecap="round" stroke-linejoin="round"/>
</svg>
