<svg width="57" height="56" viewBox="0 0 57 56" fill="none" xmlns="http://www.w3.org/2000/svg">
<path d="M46.9154 23.3366V15.8699C46.9154 11.9496 46.9154 9.98937 46.1524 8.49199C45.4813 7.17485 44.4104 6.10399 43.0933 5.43288C41.5959 4.66992 39.6357 4.66992 35.7154 4.66992H20.782C16.8617 4.66992 14.9015 4.66992 13.4041 5.43288C12.087 6.10399 11.0161 7.17485 10.345 8.49199C9.58203 9.98937 9.58203 11.9496 9.58203 15.8699V40.1366C9.58203 44.057 9.58203 46.0171 10.345 47.5145C11.0161 48.8317 12.087 49.9025 13.4041 50.5736C14.9015 51.3366 16.8617 51.3366 20.782 51.3366H24.7487M30.582 25.6699H18.9154M25.9154 35.0033H18.9154M37.582 16.3366H18.9154M45.1654 39.6699V35.5866C45.1654 33.3314 43.3372 31.5033 41.082 31.5033C38.8269 31.5033 36.9987 33.3314 36.9987 35.5866V39.6699M36.6487 49.0033H45.5154C46.8222 49.0033 47.4755 49.0033 47.9747 48.7489C48.4137 48.5252 48.7707 48.1683 48.9944 47.7292C49.2487 47.2301 49.2487 46.5767 49.2487 45.2699V43.4033C49.2487 42.0965 49.2487 41.4431 48.9944 40.9439C48.7707 40.5049 48.4137 40.1479 47.9747 39.9242C47.4755 39.6699 46.8222 39.6699 45.5154 39.6699H36.6487C35.3419 39.6699 34.6885 39.6699 34.1894 39.9242C33.7503 40.1479 33.3934 40.5049 33.1697 40.9439C32.9154 41.4431 32.9154 42.0965 32.9154 43.4033V45.2699C32.9154 46.5767 32.9154 47.2301 33.1697 47.7292C33.3934 48.1683 33.7503 48.5252 34.1894 48.7489C34.6885 49.0033 35.3419 49.0033 36.6487 49.0033Z" stroke="#5C5C77" stroke-width="4" stroke-linecap="round" stroke-linejoin="round"/>
</svg>
