<svg width="25" height="25" viewBox="0 0 25 25" fill="none" xmlns="http://www.w3.org/2000/svg">
<path opacity="0.4" d="M10.9819 16.9451H4.40942C3.57758 16.9451 2.90234 17.6085 2.90234 18.4257C2.90234 19.2419 3.57758 19.9064 4.40942 19.9064H10.9819C11.8137 19.9064 12.489 19.2419 12.489 18.4257C12.489 17.6085 11.8137 16.9451 10.9819 16.9451" fill="#131313"/>
<path opacity="0.4" d="M22.8941 7.37012C22.8941 6.55396 22.2189 5.89056 21.3881 5.89056H14.8157C13.9838 5.89056 13.3086 6.55396 13.3086 7.37012C13.3086 8.18736 13.9838 8.85076 14.8157 8.85076H21.3881C22.2189 8.85076 22.8941 8.18736 22.8941 7.37012" fill="#131313"/>
<path d="M9.7769 7.3701C9.7769 9.23591 8.23874 10.7482 6.33962 10.7482C4.44162 10.7482 2.90234 9.23591 2.90234 7.3701C2.90234 5.50539 4.44162 3.9931 6.33962 3.9931C8.23874 3.9931 9.7769 5.50539 9.7769 7.3701" fill="#131313"/>
<path d="M22.8902 18.3857C22.8902 20.2504 21.352 21.7627 19.4529 21.7627C17.5549 21.7627 16.0156 20.2504 16.0156 18.3857C16.0156 16.5199 17.5549 15.0076 19.4529 15.0076C21.352 15.0076 22.8902 16.5199 22.8902 18.3857" fill="#131313"/>
</svg>
