<svg width="20" height="21" viewBox="0 0 20 21" fill="none" xmlns="http://www.w3.org/2000/svg">
<path opacity="0.4" d="M14.8843 3.97324H11.9413C11.2081 3.97809 10.512 3.65195 10.0474 3.0859L9.0782 1.74602C8.62137 1.17501 7.9253 0.847343 7.19321 0.858683H5.11261C1.37819 0.858683 1.05022e-05 3.05041 1.05022e-05 6.77724V10.8058C-0.00463617 11.2488 19.9956 11.2482 19.9969 10.8058V9.63447C20.0147 5.90764 18.6721 3.97324 14.8843 3.97324Z" fill="#2A333E"/>
<path fill-rule="evenodd" clip-rule="evenodd" d="M18.8321 5.40218C19.1521 5.77626 19.3993 6.20657 19.5612 6.67107C19.8798 7.62576 20.0273 8.62901 19.9969 9.63479V14.8878C19.9956 15.3303 19.963 15.7721 19.8991 16.21C19.7775 16.9827 19.5057 17.7242 19.0989 18.3928C18.9119 18.7158 18.6849 19.0139 18.4231 19.2802C17.2383 20.3676 15.665 20.9336 14.0574 20.8508H5.93061C4.32049 20.933 2.74462 20.3672 1.55601 19.2802C1.2974 19.0134 1.07337 18.7153 0.889149 18.3928C0.484751 17.7247 0.21869 16.9825 0.1067 16.21C0.0354894 15.7728 -0.000192693 15.3307 9.42692e-07 14.8878V9.63479C-0.000172448 9.19607 0.0235732 8.75767 0.0711337 8.32152C0.0811349 8.245 0.096136 8.16973 0.110982 8.09524C0.135731 7.97105 0.160048 7.84903 0.160048 7.72701C0.250307 7.20068 0.414959 6.6898 0.649079 6.20966C1.34261 4.7278 2.76525 3.97356 5.09481 3.97356H14.8754C16.1802 3.87265 17.4753 4.26545 18.5032 5.07386C18.6215 5.17424 18.7316 5.28404 18.8321 5.40218ZM4.97033 14.3998H15.0355H15.0533C15.2741 14.4094 15.4896 14.3303 15.6517 14.1803C15.8137 14.0302 15.9088 13.8217 15.9157 13.6012C15.9282 13.4074 15.8644 13.2164 15.7379 13.0688C15.5924 12.8705 15.3618 12.7521 15.1155 12.7493H4.97033C4.51365 12.7493 4.14343 13.1188 4.14343 13.5746C4.14343 14.0303 4.51365 14.3998 4.97033 14.3998Z" fill="#2A333E"/>
</svg>
