<svg width="20" height="21" viewBox="0 0 20 21" fill="none" xmlns="http://www.w3.org/2000/svg">
<path opacity="0.4" d="M14.8843 3.97349H11.9413C11.2081 3.97833 10.512 3.65219 10.0474 3.08615L9.0782 1.74627C8.62137 1.17526 7.9253 0.847587 7.19321 0.858928H5.11261C1.37819 0.858928 1.05022e-05 3.05066 1.05022e-05 6.77748V10.806C-0.00463617 11.249 19.9956 11.2485 19.9969 10.806V9.63471C20.0147 5.90789 18.6721 3.97349 14.8843 3.97349Z" fill="#9797AA"/>
<path fill-rule="evenodd" clip-rule="evenodd" d="M18.8321 5.40212C19.1521 5.7762 19.3993 6.20651 19.5612 6.67101C19.8798 7.6257 20.0273 8.62895 19.9969 9.63472V14.8878C19.9956 15.3302 19.963 15.7721 19.8991 16.2099C19.7775 16.9826 19.5057 17.7242 19.0989 18.3928C18.9119 18.7157 18.6849 19.0138 18.4231 19.2801C17.2383 20.3675 15.665 20.9335 14.0574 20.8507H5.93061C4.32049 20.9329 2.74462 20.3671 1.55601 19.2801C1.2974 19.0133 1.07337 18.7152 0.889149 18.3928C0.484751 17.7247 0.21869 16.9824 0.1067 16.2099C0.0354894 15.7728 -0.000192693 15.3306 9.42692e-07 14.8878V9.63472C-0.000172448 9.19601 0.0235732 8.7576 0.0711337 8.32146C0.0811349 8.24494 0.096136 8.16967 0.110982 8.09518C0.135731 7.97099 0.160048 7.84897 0.160048 7.72694C0.250307 7.20062 0.414959 6.68974 0.649079 6.2096C1.34261 4.72774 2.76525 3.9735 5.09481 3.9735H14.8754C16.1802 3.87259 17.4753 4.26539 18.5032 5.0738C18.6215 5.17418 18.7316 5.28398 18.8321 5.40212ZM4.97033 14.3997H15.0355H15.0533C15.2741 14.4093 15.4896 14.3303 15.6517 14.1802C15.8137 14.0302 15.9088 13.8216 15.9157 13.6011C15.9282 13.4073 15.8644 13.2163 15.7379 13.0687C15.5924 12.8704 15.3618 12.7521 15.1155 12.7493H4.97033C4.51365 12.7493 4.14343 13.1187 4.14343 13.5745C4.14343 14.0303 4.51365 14.3997 4.97033 14.3997Z" fill="#9797AA"/>
</svg>
