<svg width="37" height="32" viewBox="0 0 37 32" fill="none" xmlns="http://www.w3.org/2000/svg">
<path d="M34.056 0.765259H2.94488C2.35551 0.765259 1.79028 0.999385 1.37353 1.41613C0.956782 1.83288 0.722656 2.39811 0.722656 2.98748V29.6541C0.722656 30.2435 0.956782 30.8088 1.37353 31.2255C1.79028 31.6422 2.35551 31.8764 2.94488 31.8764H34.056C34.6454 31.8764 35.2106 31.6422 35.6273 31.2255C36.0441 30.8088 36.2782 30.2435 36.2782 29.6541V2.98748C36.2782 2.39811 36.0441 1.83288 35.6273 1.41613C35.2106 0.999385 34.6454 0.765259 34.056 0.765259ZM8.41155 5.2097C9.07082 5.2097 9.71528 5.4052 10.2634 5.77147C10.8116 6.13774 11.2389 6.65834 11.4911 7.26743C11.7434 7.87651 11.8094 8.54673 11.6808 9.19334C11.5522 9.83994 11.2347 10.4339 10.7686 10.9001C10.3024 11.3662 9.70845 11.6837 9.06185 11.8123C8.41524 11.9409 7.74502 11.8749 7.13593 11.6226C6.52685 11.3703 6.00625 10.9431 5.63998 10.3949C5.27371 9.84677 5.07821 9.20231 5.07821 8.54304C5.07821 7.65898 5.4294 6.81114 6.05452 6.18601C6.67964 5.56089 7.52749 5.2097 8.41155 5.2097ZM5.1671 26.3208V21.7653L11.8338 15.0097C12.0419 14.8028 12.3236 14.6866 12.6171 14.6866C12.9106 14.6866 13.1923 14.8028 13.4004 15.0097L16.2782 17.8208L7.74488 26.3208H5.1671ZM31.8338 26.3208H10.8893L17.8115 19.3986L23.8115 13.3986C24.0197 13.1916 24.3013 13.0755 24.5949 13.0755C24.8884 13.0755 25.17 13.1916 25.3782 13.3986L31.8338 19.8541V26.3208Z" fill="#7C858E"/>
</svg>
