<svg width="22" height="23" viewBox="0 0 22 23" fill="none" xmlns="http://www.w3.org/2000/svg">
<path d="M8.99825 12.5C9.4277 13.0742 9.9756 13.5492 10.6048 13.893C11.234 14.2367 11.9298 14.4411 12.6449 14.4924C13.36 14.5436 14.0778 14.4404 14.7496 14.1898C15.4214 13.9392 16.0314 13.5471 16.5382 13.04L19.5382 10.04C20.449 9.09702 20.953 7.834 20.9416 6.52302C20.9302 5.21204 20.4044 3.95797 19.4773 3.03093C18.5503 2.10389 17.2962 1.57805 15.9853 1.56666C14.6743 1.55526 13.4113 2.05924 12.4682 2.97003L10.7482 4.68003M12.9982 10.5C12.5688 9.9259 12.0209 9.45084 11.3917 9.10709C10.7625 8.76333 10.0667 8.55891 9.3516 8.50769C8.63645 8.45648 7.91866 8.55966 7.2469 8.81025C6.57514 9.06083 5.96513 9.45296 5.45825 9.96003L2.45825 12.96C1.54746 13.903 1.04348 15.166 1.05488 16.477C1.06627 17.788 1.59211 19.0421 2.51915 19.9691C3.44619 20.8962 4.70026 21.422 6.01124 21.4334C7.32222 21.4448 8.58524 20.9408 9.52825 20.03L11.2382 18.32" stroke="black" stroke-width="2" stroke-linecap="round" stroke-linejoin="round"/>
</svg>
