<svg width="121" height="33" viewBox="0 0 121 33" fill="none" xmlns="http://www.w3.org/2000/svg">
<g filter="url(#filter0_d_261_9377)">
<path d="M3.2205 27.8584V10.4149H6.38043V25.2095H14.0631V27.8584H3.2205ZM22.376 28.1139C21.0984 28.1139 19.9911 27.8328 19.0542 27.2707C18.1173 26.7086 17.3905 25.9221 16.8738 24.9114C16.3627 23.9007 16.1072 22.7196 16.1072 21.3682C16.1072 20.0168 16.3627 18.8329 16.8738 17.8165C17.3905 16.8001 18.1173 16.0108 19.0542 15.4486C19.9911 14.8865 21.0984 14.6054 22.376 14.6054C23.6536 14.6054 24.7608 14.8865 25.6977 15.4486C26.6346 16.0108 27.3586 16.8001 27.8697 17.8165C28.3864 18.8329 28.6447 20.0168 28.6447 21.3682C28.6447 22.7196 28.3864 23.9007 27.8697 24.9114C27.3586 25.9221 26.6346 26.7086 25.6977 27.2707C24.7608 27.8328 23.6536 28.1139 22.376 28.1139ZM22.393 25.6439C23.0858 25.6439 23.6649 25.4537 24.1306 25.0732C24.5962 24.6871 24.9425 24.1704 25.1697 23.5231C25.4025 22.8758 25.5189 22.1546 25.5189 21.3597C25.5189 20.559 25.4025 19.8351 25.1697 19.1878C24.9425 18.5348 24.5962 18.0152 24.1306 17.6291C23.6649 17.243 23.0858 17.0499 22.393 17.0499C21.6832 17.0499 21.0927 17.243 20.6214 17.6291C20.1558 18.0152 19.8066 18.5348 19.5738 19.1878C19.3467 19.8351 19.2331 20.559 19.2331 21.3597C19.2331 22.1546 19.3467 22.8758 19.5738 23.5231C19.8066 24.1704 20.1558 24.6871 20.6214 25.0732C21.0927 25.4537 21.6832 25.6439 22.393 25.6439ZM34.345 20.1928V27.8584H31.2617V10.4149H34.2768V16.9988H34.4301C34.7368 16.2606 35.2109 15.6786 35.8525 15.2527C36.4998 14.8212 37.3232 14.6054 38.3226 14.6054C39.2311 14.6054 40.0232 14.7956 40.6989 15.1761C41.3746 15.5565 41.897 16.113 42.2661 16.8455C42.6408 17.578 42.8282 18.4723 42.8282 19.5284V27.8584H39.745V20.0054C39.745 19.1253 39.5178 18.4411 39.0636 17.9527C38.615 17.4587 37.9847 17.2117 37.1727 17.2117C36.6276 17.2117 36.1393 17.331 35.7077 17.5695C35.2819 17.8023 34.9469 18.1401 34.7027 18.583C34.4642 19.0259 34.345 19.5625 34.345 20.1928ZM49.7358 28.1224C48.9068 28.1224 48.1601 27.9748 47.4957 27.6795C46.8371 27.3786 46.3147 26.9357 45.9285 26.3508C45.5481 25.766 45.3579 25.0448 45.3579 24.1874C45.3579 23.4493 45.4942 22.8389 45.7667 22.3562C46.0393 21.8736 46.4112 21.4874 46.8825 21.1978C47.3538 20.9083 47.8847 20.6896 48.4752 20.542C49.0714 20.3887 49.6875 20.278 50.3235 20.2098C51.09 20.1303 51.7118 20.0594 52.1888 19.9969C52.6657 19.9288 53.0121 19.8266 53.2279 19.6903C53.4493 19.5483 53.5601 19.3297 53.5601 19.0344V18.9833C53.5601 18.3417 53.3698 17.8449 52.9894 17.4928C52.609 17.1408 52.061 16.9647 51.3456 16.9647C50.5904 16.9647 49.9913 17.1294 49.5484 17.4587C49.1112 17.7881 48.8159 18.177 48.6626 18.6256L45.7837 18.2168C46.0109 17.4218 46.3856 16.7575 46.908 16.2237C47.4304 15.6843 48.0692 15.2811 48.8244 15.0143C49.5796 14.7417 50.4143 14.6054 51.3285 14.6054C51.9588 14.6054 52.5863 14.6792 53.2109 14.8269C53.8355 14.9745 54.4061 15.2187 54.9228 15.5594C55.4396 15.8944 55.8541 16.3515 56.1664 16.9307C56.4843 17.5098 56.6433 18.2338 56.6433 19.1026V27.8584H53.6793V26.0612H53.5771C53.3897 26.4246 53.1257 26.7653 52.785 27.0833C52.45 27.3956 52.0269 27.6483 51.5159 27.8414C51.0105 28.0287 50.4172 28.1224 49.7358 28.1224ZM50.5364 25.8568C51.1553 25.8568 51.6919 25.7347 52.1462 25.4906C52.6004 25.2407 52.9497 24.9114 53.1938 24.5026C53.4437 24.0937 53.5686 23.648 53.5686 23.1653V21.6237C53.4721 21.7032 53.3074 21.777 53.0746 21.8452C52.8474 21.9133 52.5919 21.9729 52.308 22.024C52.0241 22.0751 51.743 22.1206 51.4648 22.1603C51.1866 22.2001 50.9452 22.2341 50.7408 22.2625C50.2809 22.325 49.8692 22.4272 49.5058 22.5691C49.1424 22.7111 48.8557 22.9098 48.6456 23.1653C48.4355 23.4152 48.3304 23.7388 48.3304 24.1363C48.3304 24.7041 48.5377 25.1329 48.9522 25.4224C49.3667 25.712 49.8948 25.8568 50.5364 25.8568ZM62.4436 27.8584L58.7471 14.7758H61.89L64.1897 23.9745H64.3089L66.6597 14.7758H69.7685L72.1193 23.9234H72.2471L74.5127 14.7758H77.6641L73.9591 27.8584H70.748L68.295 19.0174H68.1162L65.6632 27.8584H62.4436ZM83.5815 28.1224C82.7525 28.1224 82.0058 27.9748 81.3415 27.6795C80.6828 27.3786 80.1604 26.9357 79.7743 26.3508C79.3938 25.766 79.2036 25.0448 79.2036 24.1874C79.2036 23.4493 79.3399 22.8389 79.6125 22.3562C79.885 21.8736 80.2569 21.4874 80.7282 21.1978C81.1995 20.9083 81.7304 20.6896 82.321 20.542C82.9172 20.3887 83.5333 20.278 84.1692 20.2098C84.9358 20.1303 85.5576 20.0594 86.0345 19.9969C86.5115 19.9288 86.8579 19.8266 87.0736 19.6903C87.2951 19.5483 87.4058 19.3297 87.4058 19.0344V18.9833C87.4058 18.3417 87.2156 17.8449 86.8352 17.4928C86.4547 17.1408 85.9068 16.9647 85.1913 16.9647C84.4361 16.9647 83.8371 17.1294 83.3942 17.4587C82.9569 17.7881 82.6617 18.177 82.5084 18.6256L79.6295 18.2168C79.8566 17.4218 80.2314 16.7575 80.7538 16.2237C81.2762 15.6843 81.915 15.2811 82.6702 15.0143C83.4254 14.7417 84.2601 14.6054 85.1743 14.6054C85.8046 14.6054 86.432 14.6792 87.0566 14.8269C87.6812 14.9745 88.2519 15.2187 88.7686 15.5594C89.2853 15.8944 89.6998 16.3515 90.0121 16.9307C90.3301 17.5098 90.4891 18.2338 90.4891 19.1026V27.8584H87.5251V26.0612H87.4229C87.2355 26.4246 86.9714 26.7653 86.6307 27.0833C86.2957 27.3956 85.8727 27.6483 85.3617 27.8414C84.8563 28.0287 84.2629 28.1224 83.5815 28.1224ZM84.3822 25.8568C85.0011 25.8568 85.5377 25.7347 85.9919 25.4906C86.4462 25.2407 86.7954 24.9114 87.0396 24.5026C87.2894 24.0937 87.4143 23.648 87.4143 23.1653V21.6237C87.3178 21.7032 87.1531 21.777 86.9203 21.8452C86.6932 21.9133 86.4377 21.9729 86.1538 22.024C85.8699 22.0751 85.5888 22.1206 85.3106 22.1603C85.0323 22.2001 84.791 22.2341 84.5866 22.2625C84.1266 22.325 83.715 22.4272 83.3516 22.5691C82.9882 22.7111 82.7014 22.9098 82.4913 23.1653C82.2812 23.4152 82.1762 23.7388 82.1762 24.1363C82.1762 24.7041 82.3834 25.1329 82.7979 25.4224C83.2125 25.712 83.7405 25.8568 84.3822 25.8568ZM96.6727 10.4149V27.8584H93.5894V10.4149H96.6727ZM102.927 10.4149V27.8584H99.8432V10.4149H102.927ZM109.862 28.1224C109.033 28.1224 108.286 27.9748 107.622 27.6795C106.963 27.3786 106.441 26.9357 106.055 26.3508C105.674 25.766 105.484 25.0448 105.484 24.1874C105.484 23.4493 105.62 22.8389 105.893 22.3562C106.165 21.8736 106.537 21.4874 107.008 21.1978C107.48 20.9083 108.011 20.6896 108.601 20.542C109.197 20.3887 109.813 20.278 110.449 20.2098C111.216 20.1303 111.838 20.0594 112.315 19.9969C112.792 19.9288 113.138 19.8266 113.354 19.6903C113.575 19.5483 113.686 19.3297 113.686 19.0344V18.9833C113.686 18.3417 113.496 17.8449 113.115 17.4928C112.735 17.1408 112.187 16.9647 111.472 16.9647C110.716 16.9647 110.117 17.1294 109.674 17.4587C109.237 17.7881 108.942 18.177 108.789 18.6256L105.91 18.2168C106.137 17.4218 106.512 16.7575 107.034 16.2237C107.556 15.6843 108.195 15.2811 108.95 15.0143C109.706 14.7417 110.54 14.6054 111.455 14.6054C112.085 14.6054 112.712 14.6792 113.337 14.8269C113.961 14.9745 114.532 15.2187 115.049 15.5594C115.566 15.8944 115.98 16.3515 116.292 16.9307C116.61 17.5098 116.769 18.2338 116.769 19.1026V27.8584H113.805V26.0612H113.703C113.516 26.4246 113.252 26.7653 112.911 27.0833C112.576 27.3956 112.153 27.6483 111.642 27.8414C111.137 28.0287 110.543 28.1224 109.862 28.1224ZM110.662 25.8568C111.281 25.8568 111.818 25.7347 112.272 25.4906C112.726 25.2407 113.076 24.9114 113.32 24.5026C113.57 24.0937 113.695 23.648 113.695 23.1653V21.6237C113.598 21.7032 113.433 21.777 113.201 21.8452C112.973 21.9133 112.718 21.9729 112.434 22.024C112.15 22.0751 111.869 22.1206 111.591 22.1603C111.313 22.2001 111.071 22.2341 110.867 22.2625C110.407 22.325 109.995 22.4272 109.632 22.5691C109.268 22.7111 108.982 22.9098 108.772 23.1653C108.561 23.4152 108.456 23.7388 108.456 24.1363C108.456 24.7041 108.664 25.1329 109.078 25.4224C109.493 25.712 110.021 25.8568 110.662 25.8568Z" fill="url(#paint0_linear_261_9377)"/>
<rect x="99.7227" y="2" width="3.14087" height="25.698" fill="url(#paint1_linear_261_9377)"/>
<rect x="3.16797" y="2.02441" width="3.17494" height="25.5666" fill="url(#paint2_linear_261_9377)"/>
</g>
<defs>
<filter id="filter0_d_261_9377" x="0.66144" y="0.496083" width="119.617" height="32.1377" filterUnits="userSpaceOnUse" color-interpolation-filters="sRGB">
<feFlood flood-opacity="0" result="BackgroundImageFix"/>
<feColorMatrix in="SourceAlpha" type="matrix" values="0 0 0 0 0 0 0 0 0 0 0 0 0 0 0 0 0 0 127 0" result="hardAlpha"/>
<feOffset dx="0.501306" dy="1.50392"/>
<feGaussianBlur stdDeviation="1.50392"/>
<feComposite in2="hardAlpha" operator="out"/>
<feColorMatrix type="matrix" values="0 0 0 0 0 0 0 0 0 0 0 0 0 0 0 0 0 0 0.25 0"/>
<feBlend mode="normal" in2="BackgroundImageFix" result="effect1_dropShadow_261_9377"/>
<feBlend mode="normal" in="SourceGraphic" in2="effect1_dropShadow_261_9377" result="shape"/>
</filter>
<linearGradient id="paint0_linear_261_9377" x1="60.0821" y1="11.87" x2="60.0007" y2="30.8584" gradientUnits="userSpaceOnUse">
<stop offset="0.242248" stop-color="#131415"/>
<stop offset="0.590876" stop-color="#7F8286" stop-opacity="0.92"/>
<stop offset="0.748928"/>
</linearGradient>
<linearGradient id="paint1_linear_261_9377" x1="101.293" y1="2" x2="101.293" y2="27.698" gradientUnits="userSpaceOnUse">
<stop offset="0.180036" stop-color="#141516"/>
<stop offset="0.793943" stop-color="#86898D"/>
<stop offset="0.953125" stop-color="#010101"/>
</linearGradient>
<linearGradient id="paint2_linear_261_9377" x1="4.75544" y1="2.02441" x2="4.75544" y2="27.591" gradientUnits="userSpaceOnUse">
<stop offset="0.237575" stop-color="#141516"/>
<stop offset="0.740275" stop-color="#808286"/>
<stop offset="0.953125" stop-color="#040404"/>
</linearGradient>
</defs>
</svg>
