<svg width="50" height="40" viewBox="0 0 50 40" fill="none" xmlns="http://www.w3.org/2000/svg">
<path d="M46.9569 34.0007L31.457 20.0007M18.1237 20.0007L2.62378 34.0007M1.45703 8.33398L20.5085 21.67C22.0512 22.7499 22.8226 23.2899 23.6616 23.499C24.4028 23.6838 25.1779 23.6838 25.9191 23.499C26.7581 23.2899 27.5295 22.7499 29.0722 21.67L48.1237 8.33398M12.657 38.6673H36.9237C40.8441 38.6673 42.8042 38.6673 44.3016 37.9044C45.6188 37.2333 46.6896 36.1624 47.3607 34.8453C48.1237 33.3479 48.1237 31.3877 48.1237 27.4673V12.534C48.1237 8.61362 48.1237 6.65343 47.3607 5.15605C46.6896 3.83892 45.6188 2.76805 44.3016 2.09694C42.8042 1.33398 40.8441 1.33398 36.9237 1.33398H12.657C8.73666 1.33398 6.77648 1.33398 5.2791 2.09694C3.96196 2.76805 2.8911 3.83892 2.21999 5.15605C1.45703 6.65343 1.45703 8.61362 1.45703 12.534V27.4673C1.45703 31.3877 1.45703 33.3479 2.21999 34.8453C2.8911 36.1624 3.96196 37.2333 5.2791 37.9044C6.77648 38.6673 8.73666 38.6673 12.657 38.6673Z" stroke="black" stroke-width="2" stroke-linecap="round" stroke-linejoin="round"/>
</svg>
