<svg width="57" height="56" viewBox="0 0 57 56" fill="none" xmlns="http://www.w3.org/2000/svg">
<path d="M51.8327 25.666V19.1327C51.8327 16.5191 51.8327 15.2123 51.324 14.2141C50.8766 13.336 50.1627 12.6221 49.2846 12.1747C48.2864 11.666 46.9796 11.666 44.366 11.666H12.6327C10.0191 11.666 8.71231 11.666 7.71406 12.1747C6.83597 12.6221 6.12206 13.336 5.67465 14.2141C5.16602 15.2123 5.16602 16.5191 5.16602 19.1327V27.5327C5.16602 30.1463 5.16602 31.453 5.67465 32.4513C6.12206 33.3294 6.83597 34.0433 7.71406 34.4907C8.71231 34.9993 10.0191 34.9993 12.6327 34.9993H26.166M28.4993 23.3327H28.511M40.166 23.3327H40.1777M16.8327 23.3327H16.8443M45.416 39.666V35.5827C45.416 33.3275 43.5878 31.4993 41.3327 31.4993C39.0775 31.4993 37.2493 33.3275 37.2493 35.5827V39.666M29.0827 23.3327C29.0827 23.6548 28.8215 23.916 28.4993 23.916C28.1772 23.916 27.916 23.6548 27.916 23.3327C27.916 23.0105 28.1772 22.7493 28.4993 22.7493C28.8215 22.7493 29.0827 23.0105 29.0827 23.3327ZM40.7493 23.3327C40.7493 23.6548 40.4882 23.916 40.166 23.916C39.8438 23.916 39.5827 23.6548 39.5827 23.3327C39.5827 23.0105 39.8438 22.7493 40.166 22.7493C40.4882 22.7493 40.7493 23.0105 40.7493 23.3327ZM17.416 23.3327C17.416 23.6548 17.1548 23.916 16.8327 23.916C16.5105 23.916 16.2493 23.6548 16.2493 23.3327C16.2493 23.0105 16.5105 22.7493 16.8327 22.7493C17.1548 22.7493 17.416 23.0105 17.416 23.3327ZM36.8993 48.9993H45.766C47.0728 48.9993 47.7262 48.9993 48.2253 48.745C48.6644 48.5213 49.0213 48.1644 49.245 47.7253C49.4993 47.2262 49.4993 46.5728 49.4993 45.266V43.3993C49.4993 42.0926 49.4993 41.4392 49.245 40.94C49.0213 40.501 48.6644 40.144 48.2253 39.9203C47.7262 39.666 47.0728 39.666 45.766 39.666H36.8993C35.5926 39.666 34.9392 39.666 34.44 39.9203C34.001 40.144 33.644 40.501 33.4203 40.94C33.166 41.4392 33.166 42.0926 33.166 43.3993V45.266C33.166 46.5728 33.166 47.2262 33.4203 47.7253C33.644 48.1644 34.001 48.5213 34.44 48.745C34.9392 48.9993 35.5926 48.9993 36.8993 48.9993Z" stroke="black" stroke-width="2" stroke-linecap="round" stroke-linejoin="round"/>
</svg>
