<svg width="20" height="21" viewBox="0 0 20 21" fill="none" xmlns="http://www.w3.org/2000/svg">
<path opacity="0.4" d="M14.6667 0.859375H5.33333C1.92889 0.859375 0 2.78826 0 6.19271V15.526C0 18.9216 1.92 20.8594 5.33333 20.8594H14.6667C18.0711 20.8594 20 18.9216 20 15.526V6.19271C20 2.78826 18.0711 0.859375 14.6667 0.859375Z" fill="#2A333E"/>
<path d="M13.3205 11.5677H10.7495V14.1164C10.7495 14.5267 10.4139 14.8594 10 14.8594C9.58605 14.8594 9.25048 14.5267 9.25048 14.1164V11.5677H6.67955C6.29342 11.5281 6 11.2055 6 10.8207C6 10.4359 6.29342 10.1133 6.67955 10.0737H9.24242V7.53303C9.28241 7.15025 9.60778 6.85938 9.99597 6.85938C10.3842 6.85938 10.7095 7.15025 10.7495 7.53303V10.0737H13.3205C13.7066 10.1133 14 10.4359 14 10.8207C14 11.2055 13.7066 11.5281 13.3205 11.5677Z" fill="#2A333E"/>
</svg>
