<svg width="20" height="21" viewBox="0 0 20 21" fill="none" xmlns="http://www.w3.org/2000/svg">
<path opacity="0.4" d="M14.6667 0.858673H5.33333C1.92889 0.858673 0 2.78756 0 6.19201V15.5253C0 18.9209 1.92 20.8587 5.33333 20.8587H14.6667C18.0711 20.8587 20 18.9209 20 15.5253V6.19201C20 2.78756 18.0711 0.858673 14.6667 0.858673Z" fill="#9797AA"/>
<path d="M13.3205 11.567H10.7495V14.1157C10.7495 14.526 10.4139 14.8587 10 14.8587C9.58605 14.8587 9.25048 14.526 9.25048 14.1157V11.567H6.67955C6.29342 11.5274 6 11.2048 6 10.82C6 10.4352 6.29342 10.1126 6.67955 10.073H9.24242V7.53233C9.28241 7.14955 9.60778 6.85867 9.99597 6.85867C10.3842 6.85867 10.7095 7.14955 10.7495 7.53233V10.073H13.3205C13.7066 10.1126 14 10.4352 14 10.82C14 11.2048 13.7066 11.5274 13.3205 11.567Z" fill="#9797AA"/>
</svg>
