<svg width="56" height="56" viewBox="0 0 56 56" fill="none" xmlns="http://www.w3.org/2000/svg">
<path d="M51.3337 25.6665V19.1332C51.3337 16.5196 51.3337 15.2128 50.825 14.2145C50.3776 13.3365 49.6637 12.6225 48.7856 12.1751C47.7874 11.6665 46.4806 11.6665 43.867 11.6665H12.1337C9.52008 11.6665 8.21329 11.6665 7.21504 12.1751C6.33695 12.6225 5.62304 13.3365 5.17563 14.2145C4.66699 15.2128 4.66699 16.5196 4.66699 19.1332V27.5332C4.66699 30.1467 4.66699 31.4535 5.17563 32.4518C5.62304 33.3299 6.33695 34.0438 7.21504 34.4912C8.21329 34.9998 9.52008 34.9998 12.1337 34.9998H25.667M28.0003 23.3332H28.012M39.667 23.3332H39.6787M16.3337 23.3332H16.3453M44.917 39.6665V35.5832C44.917 33.328 43.0888 31.4998 40.8337 31.4998C38.5785 31.4998 36.7503 33.328 36.7503 35.5832V39.6665M28.5837 23.3332C28.5837 23.6553 28.3225 23.9165 28.0003 23.9165C27.6782 23.9165 27.417 23.6553 27.417 23.3332C27.417 23.011 27.6782 22.7498 28.0003 22.7498C28.3225 22.7498 28.5837 23.011 28.5837 23.3332ZM40.2503 23.3332C40.2503 23.6553 39.9892 23.9165 39.667 23.9165C39.3448 23.9165 39.0837 23.6553 39.0837 23.3332C39.0837 23.011 39.3448 22.7498 39.667 22.7498C39.9892 22.7498 40.2503 23.011 40.2503 23.3332ZM16.917 23.3332C16.917 23.6553 16.6558 23.9165 16.3337 23.9165C16.0115 23.9165 15.7503 23.6553 15.7503 23.3332C15.7503 23.011 16.0115 22.7498 16.3337 22.7498C16.6558 22.7498 16.917 23.011 16.917 23.3332ZM36.4003 48.9998H45.267C46.5738 48.9998 47.2272 48.9998 47.7263 48.7455C48.1653 48.5218 48.5223 48.1649 48.746 47.7258C49.0003 47.2267 49.0003 46.5733 49.0003 45.2665V43.3998C49.0003 42.093 49.0003 41.4397 48.746 40.9405C48.5223 40.5015 48.1653 40.1445 47.7263 39.9208C47.2272 39.6665 46.5738 39.6665 45.267 39.6665H36.4003C35.0935 39.6665 34.4401 39.6665 33.941 39.9208C33.502 40.1445 33.145 40.5015 32.9213 40.9405C32.667 41.4397 32.667 42.093 32.667 43.3998V45.2665C32.667 46.5733 32.667 47.2267 32.9213 47.7258C33.145 48.1649 33.502 48.5218 33.941 48.7455C34.4401 48.9998 35.0935 48.9998 36.4003 48.9998Z" stroke="black" stroke-width="2" stroke-linecap="round" stroke-linejoin="round"/>
</svg>
