<svg width="32" height="32" viewBox="0 0 32 32" fill="none" xmlns="http://www.w3.org/2000/svg">
<path opacity="0.4" d="M21.787 2.6665H10.227C5.70699 2.6665 2.66699 5.83984 2.66699 10.5598V21.4532C2.66699 26.1598 5.70699 29.3332 10.227 29.3332H21.787C26.307 29.3332 29.3337 26.1598 29.3337 21.4532V10.5598C29.3337 5.83984 26.307 2.6665 21.787 2.6665Z" fill="#9797AA"/>
<path d="M20.0211 18.3602L17.6491 15.9895L20.0198 13.6188C20.4758 13.1642 20.4758 12.4242 20.0198 11.9695C19.5638 11.5108 18.8264 11.5122 18.3704 11.9682L15.9984 14.3388L13.6264 11.9655C13.1704 11.5095 12.4318 11.5122 11.9758 11.9655C11.5211 12.4215 11.5211 13.1615 11.9758 13.6162L14.3491 15.9895L11.9811 18.3562C11.5251 18.8122 11.5251 19.5522 11.9811 20.0055C12.2091 20.2348 12.5064 20.3482 12.8051 20.3482C13.1051 20.3482 13.4024 20.2348 13.6304 20.0068L15.9984 17.6388L18.3718 20.0108C18.5998 20.2388 18.8971 20.3522 19.1958 20.3522C19.4944 20.3522 19.7931 20.2375 20.0211 20.0108C20.4771 19.5548 20.4771 18.8162 20.0211 18.3602Z" fill="#9797AA"/>
</svg>
