<svg width="25" height="26" viewBox="0 0 25 26" fill="none" xmlns="http://www.w3.org/2000/svg">
<path d="M19.6919 2.0625H13.6895C13.5029 2.06237 13.3238 2.1361 13.1914 2.26758L1.19141 14.2647C0.92872 14.5286 0.78125 14.8859 0.78125 15.2583C0.78125 15.6307 0.92872 15.988 1.19141 16.252L6.9043 21.9648C7.16836 22.2276 7.5257 22.375 7.8982 22.375C8.27069 22.375 8.62803 22.2276 8.89209 21.9648L20.8887 9.97266C21.0202 9.84026 21.0939 9.6612 21.0938 9.47461V3.46875C21.0947 3.2842 21.059 3.10129 20.989 2.93055C20.9189 2.75982 20.8157 2.60463 20.6854 2.47393C20.5551 2.34322 20.4003 2.23958 20.2298 2.16897C20.0593 2.09836 19.8765 2.06218 19.6919 2.0625Z" stroke="#4B4DED" stroke-width="1.5625" stroke-linecap="round" stroke-linejoin="round"/>
<path d="M17.1875 7.53125C16.8785 7.53125 16.5764 7.43961 16.3194 7.26792C16.0625 7.09623 15.8622 6.8522 15.7439 6.56669C15.6257 6.28118 15.5947 5.96702 15.655 5.66392C15.7153 5.36083 15.8641 5.08242 16.0826 4.8639C16.3012 4.64538 16.5796 4.49656 16.8827 4.43627C17.1858 4.37598 17.4999 4.40693 17.7854 4.52519C18.071 4.64345 18.315 4.84372 18.4867 5.10067C18.6584 5.35762 18.75 5.65972 18.75 5.96875C18.75 6.38315 18.5854 6.78058 18.2924 7.07361C17.9993 7.36663 17.6019 7.53125 17.1875 7.53125Z" fill="#4B4DED"/>
<path d="M11.2305 23.9375L24.0234 11.1445C24.087 11.0804 24.1371 11.0041 24.1707 10.9202C24.2042 10.8363 24.2206 10.7466 24.2188 10.6562V4.40625" stroke="#4B4DED" stroke-width="1.5625" stroke-linecap="round" stroke-linejoin="round"/>
</svg>
