<svg width="20" height="25" viewBox="0 0 20 25" fill="none" xmlns="http://www.w3.org/2000/svg">
<path d="M6.6875 14.625L13.8125 7.5" stroke="#4B4DED" stroke-width="2.375" stroke-linecap="round" stroke-linejoin="round"/>
<path d="M7.28125 8.6875C7.60917 8.6875 7.875 8.42167 7.875 8.09375C7.875 7.76583 7.60917 7.5 7.28125 7.5C6.95333 7.5 6.6875 7.76583 6.6875 8.09375C6.6875 8.42167 6.95333 8.6875 7.28125 8.6875Z" fill="#4B4DED" stroke="#4B4DED" stroke-width="2.375" stroke-linecap="round" stroke-linejoin="round"/>
<path d="M13.2188 14.625C13.5467 14.625 13.8125 14.3592 13.8125 14.0312C13.8125 13.7033 13.5467 13.4375 13.2188 13.4375C12.8908 13.4375 12.625 13.7033 12.625 14.0312C12.625 14.3592 12.8908 14.625 13.2188 14.625Z" fill="#4B4DED" stroke="#4B4DED" stroke-width="2.375" stroke-linecap="round" stroke-linejoin="round"/>
<path d="M1.9375 22.9375V3.9375C1.9375 3.30761 2.18772 2.70352 2.63312 2.25812C3.07852 1.81272 3.68261 1.5625 4.3125 1.5625H16.1875C16.8174 1.5625 17.4215 1.81272 17.8669 2.25812C18.3123 2.70352 18.5625 3.30761 18.5625 3.9375V22.9375L15 20.5625L12.625 22.9375L10.25 20.5625L7.875 22.9375L5.5 20.5625L1.9375 22.9375Z" stroke="#4B4DED" stroke-width="2.375" stroke-linecap="round" stroke-linejoin="round"/>
</svg>
