<svg width="20" height="20" viewBox="0 0 20 20" fill="none" xmlns="http://www.w3.org/2000/svg">
<g opacity="0.9">
<path fill-rule="evenodd" clip-rule="evenodd" d="M7.08191 4.07821C8.69719 4.46702 9.9196 5.70894 10.1957 7.24221C10.2274 7.41747 10.3902 7.54169 10.5748 7.54169C10.596 7.54169 10.6174 7.54012 10.639 7.53664C10.8488 7.50378 10.9903 7.31865 10.955 7.12326C10.6284 5.31088 9.18371 3.84272 7.27407 3.3833C7.06807 3.33361 6.85822 3.44903 6.80517 3.64116C6.75231 3.83285 6.87609 4.02869 7.08191 4.07821Z" fill="#5C5C77"/>
<path fill-rule="evenodd" clip-rule="evenodd" d="M12.5653 14.7862C12.2901 14.5106 12.1383 14.1441 12.1383 13.7545C12.1383 13.4896 12.2086 13.2354 12.3399 13.0132L11.1492 11.8218C10.0542 12.7966 8.61281 13.3899 7.03528 13.3899C3.61858 13.3899 0.838787 10.6083 0.838787 7.1894C0.838787 3.77049 3.61858 0.988892 7.03528 0.988892C10.452 0.988892 13.2318 3.77049 13.2318 7.1894C13.2318 8.76795 12.6389 10.2101 11.6647 11.306L12.8556 12.4974C13.0776 12.3659 13.3314 12.2955 13.5962 12.2955C13.9857 12.2955 14.3519 12.4473 14.6271 12.7229L18.2721 16.3702C18.5475 16.6458 18.6992 17.012 18.6992 17.4019C18.6992 17.7914 18.5475 18.1579 18.2721 18.4335C17.988 18.718 17.6147 18.86 17.2411 18.86C16.8679 18.86 16.4945 18.718 16.2102 18.4335L12.5653 14.7862ZM7.03256 1.71844C4.01789 1.71844 1.56511 4.17275 1.56511 7.18943C1.56511 10.2061 4.01789 12.6604 7.03256 12.6604C10.0473 12.6604 12.5 10.2061 12.5 7.18943C12.5 4.17275 10.0473 1.71844 7.03256 1.71844ZM13.0793 14.2704L16.7243 17.9177C17.0086 18.2022 17.4711 18.202 17.7554 17.9177C17.8929 17.7799 17.9688 17.5967 17.9688 17.4019C17.9688 17.2071 17.8929 17.0239 17.7554 16.8861L14.1104 13.2388C13.9727 13.101 13.7896 13.0251 13.595 13.0251C13.4001 13.0251 13.217 13.101 13.0793 13.2388C12.9416 13.3766 12.866 13.5598 12.866 13.7546C12.866 13.9494 12.9416 14.1326 13.0793 14.2704Z" fill="#5C5C77"/>
<path d="M12.5653 14.7862L12.2118 15.1394L12.2116 15.1393L12.5653 14.7862ZM12.3399 13.0132L12.6934 12.6599L12.9672 12.9339L12.7702 13.2674L12.3399 13.0132ZM11.1492 11.8218L10.8169 11.4485L11.1693 11.1348L11.5028 11.4685L11.1492 11.8218ZM11.6647 11.306L11.3112 11.6593L10.9781 11.3261L11.2912 10.9739L11.6647 11.306ZM12.8556 12.4974L13.1104 12.9274L12.7765 13.1252L12.5021 12.8507L12.8556 12.4974ZM14.6271 12.7229L14.2736 13.0762L14.2735 13.076L14.6271 12.7229ZM18.2721 16.3702L17.9186 16.7235L18.2721 16.3702ZM18.2721 18.4335L17.9184 18.0803L17.9186 18.0802L18.2721 18.4335ZM16.2102 18.4335L16.5637 18.0802L16.2102 18.4335ZM13.0793 14.2704L12.7258 14.6237L13.0793 14.2704ZM16.7243 17.9177L16.3708 18.271L16.7243 17.9177ZM17.7554 17.9177L18.1092 18.2707L18.1088 18.2712L17.7554 17.9177ZM17.7554 16.8861L18.1089 16.5328L18.1092 16.5331L17.7554 16.8861ZM14.1104 13.2388L14.4639 12.8855L14.1104 13.2388ZM12.2116 15.1393C11.8429 14.77 11.6386 14.2766 11.6386 13.7545H12.6381C12.6381 14.0116 12.7372 14.2511 12.9189 14.433L12.2116 15.1393ZM11.6386 13.7545C11.6386 13.4004 11.7328 13.0583 11.9096 12.759L12.7702 13.2674C12.6845 13.4125 12.6381 13.5789 12.6381 13.7545H11.6386ZM11.9864 13.3665L10.7957 12.1751L11.5028 11.4685L12.6934 12.6599L11.9864 13.3665ZM11.4816 12.1951C10.299 13.2478 8.74053 13.8897 7.03528 13.8897V12.8901C8.48508 12.8901 9.80948 12.3454 10.8169 11.4485L11.4816 12.1951ZM7.03528 13.8897C3.34226 13.8897 0.339018 10.884 0.339018 7.1894H1.33856C1.33856 10.3326 3.8949 12.8901 7.03528 12.8901V13.8897ZM0.339018 7.1894C0.339018 3.49478 3.34226 0.489123 7.03528 0.489123V1.48866C3.8949 1.48866 1.33856 4.0462 1.33856 7.1894H0.339018ZM7.03528 0.489123C10.7283 0.489123 13.7315 3.49478 13.7315 7.1894H12.732C12.732 4.0462 10.1757 1.48866 7.03528 1.48866V0.489123ZM13.7315 7.1894C13.7315 8.8955 13.0903 10.4545 12.0382 11.638L11.2912 10.9739C12.1875 9.9656 12.732 8.64041 12.732 7.1894H13.7315ZM12.0181 10.9527L13.2091 12.1441L12.5021 12.8507L11.3112 11.6593L12.0181 10.9527ZM12.6009 12.0674C12.9001 11.8902 13.2419 11.7957 13.5962 11.7957V12.7953C13.421 12.7953 13.2551 12.8416 13.1104 12.9274L12.6009 12.0674ZM13.5962 11.7957C14.1183 11.7957 14.6118 12.0003 14.9808 12.3698L14.2735 13.076C14.092 12.8943 13.8531 12.7953 13.5962 12.7953V11.7957ZM14.9806 12.3696L18.6256 16.017L17.9186 16.7235L14.2736 13.0762L14.9806 12.3696ZM18.6256 16.017C18.9946 16.3862 19.199 16.8795 19.199 17.4019H18.1994C18.1994 17.1446 18.1004 16.9054 17.9186 16.7235L18.6256 16.017ZM19.199 17.4019C19.199 17.9239 18.9946 18.4174 18.6256 18.7868L17.9186 18.0802C18.1003 17.8983 18.1994 17.6589 18.1994 17.4019H19.199ZM18.6257 18.7866C18.2437 19.1692 17.7412 19.3598 17.2411 19.3598V18.3602C17.4881 18.3602 17.7323 18.2667 17.9184 18.0803L18.6257 18.7866ZM17.2411 19.3598C16.7412 19.3598 16.2389 19.1692 15.8567 18.7868L16.5637 18.0802C16.7502 18.2668 16.9945 18.3602 17.2411 18.3602V19.3598ZM15.8567 18.7868L12.2118 15.1394L12.9188 14.4329L16.5637 18.0802L15.8567 18.7868ZM7.03256 2.21821C4.2942 2.21821 2.06488 4.44847 2.06488 7.18943H1.06534C1.06534 3.89704 3.74157 1.21868 7.03256 1.21868V2.21821ZM2.06488 7.18943C2.06488 9.93035 4.29421 12.1607 7.03256 12.1607V13.1602C3.74157 13.1602 1.06534 10.4818 1.06534 7.18943H2.06488ZM7.03256 12.1607C9.77096 12.1607 12.0002 9.93035 12.0002 7.18943H12.9998C12.9998 10.4818 10.3236 13.1602 7.03256 13.1602V12.1607ZM12.0002 7.18943C12.0002 4.44846 9.77096 2.21821 7.03256 2.21821V1.21868C10.3236 1.21868 12.9998 3.89704 12.9998 7.18943H12.0002ZM13.4328 13.9171L17.0778 17.5645L16.3708 18.271L12.7258 14.6237L13.4328 13.9171ZM17.0778 17.5645C17.1667 17.6535 17.3127 17.6536 17.402 17.5643L18.1088 18.2712C17.6295 18.7504 16.8505 18.751 16.3708 18.271L17.0778 17.5645ZM17.4016 17.5648C17.4457 17.5206 17.469 17.4643 17.469 17.4019H18.4685C18.4685 17.7292 18.3401 18.0393 18.1092 18.2707L17.4016 17.5648ZM17.469 17.4019C17.469 17.3396 17.4457 17.2833 17.4016 17.2391L18.1092 16.5331C18.3401 16.7646 18.4685 17.0747 18.4685 17.4019H17.469ZM17.4019 17.2394L13.7569 13.5921L14.4639 12.8855L18.1089 16.5328L17.4019 17.2394ZM13.7569 13.5921C13.7129 13.548 13.6569 13.5249 13.595 13.5249V12.5253C13.9223 12.5253 14.2326 12.654 14.4639 12.8855L13.7569 13.5921ZM13.595 13.5249C13.5327 13.5249 13.4768 13.548 13.4328 13.5921L12.7258 12.8855C12.9572 12.654 13.2674 12.5253 13.595 12.5253V13.5249ZM13.4328 13.5921C13.389 13.6359 13.3657 13.6919 13.3657 13.7546H12.3662C12.3662 13.4277 12.4942 13.1173 12.7258 12.8855L13.4328 13.5921ZM13.3657 13.7546C13.3657 13.8173 13.389 13.8733 13.4328 13.9171L12.7258 14.6237C12.4942 14.3919 12.3662 14.0815 12.3662 13.7546H13.3657Z" fill="#5C5C77"/>
</g>
</svg>
