<svg width="130" height="130" viewBox="0 0 130 130" fill="none" xmlns="http://www.w3.org/2000/svg">
<path opacity="0.4" d="M92.8509 0.832153H37.2184C15.4659 0.832153 0.835938 16.1038 0.835938 38.8188V91.243C0.835938 113.894 15.4659 129.165 37.2184 129.165H92.8509C114.603 129.165 129.169 113.894 129.169 91.243V38.8188C129.169 16.1038 114.603 0.832153 92.8509 0.832153" fill="#46D5B2"/>
<path d="M57.3992 85.8407C55.9619 85.8407 54.5246 85.2953 53.4273 84.1981L38.2006 68.9713C36.0061 66.7768 36.0061 63.222 38.2006 61.0339C40.3951 58.8394 43.9435 58.833 46.138 61.0275L55.2779 70.1674C56.4495 71.339 58.349 71.339 59.5205 70.1674L83.8872 45.8007C86.0817 43.6062 89.6301 43.6062 91.8246 45.8007C94.0191 47.9952 94.0191 51.5501 91.8246 53.7446L61.3711 84.1981C60.2739 85.2953 58.8366 85.8407 57.3992 85.8407" fill="#46D5B2"/>
</svg>
