<svg width="57" height="56" viewBox="0 0 57 56" fill="none" xmlns="http://www.w3.org/2000/svg">
<path d="M12.6189 45.3563C14.0383 42.0121 17.3523 39.6667 21.2142 39.6667H35.2142C39.076 39.6667 42.3901 42.0122 43.8095 45.3563M37.5475 22.1667C37.5475 27.3213 33.3688 31.5 28.2142 31.5C23.0595 31.5 18.8809 27.3213 18.8809 22.1667C18.8809 17.012 23.0595 12.8333 28.2142 12.8333C33.3688 12.8333 37.5475 17.012 37.5475 22.1667ZM51.5475 28C51.5475 40.8866 41.1008 51.3333 28.2142 51.3333C15.3275 51.3333 4.88086 40.8866 4.88086 28C4.88086 15.1134 15.3275 4.66667 28.2142 4.66667C41.1008 4.66667 51.5475 15.1134 51.5475 28Z" stroke="#4B4DED" stroke-width="2" stroke-linecap="round" stroke-linejoin="round"/>
</svg>
