<svg width="130" height="24" viewBox="0 0 130 24" fill="none" xmlns="http://www.w3.org/2000/svg">
<rect width="23" height="23.7667" rx="2.3" fill="#E2E8F0"/>
<path d="M16.6631 3.12835C15.5901 2.27989 14.0324 2.46196 13.1839 3.53501C12.3354 4.60807 12.5175 6.16576 13.5906 7.01423C14.6636 7.86269 16.2213 7.68062 17.0698 6.60757C17.9182 5.53451 17.7362 3.97681 16.6631 3.12835ZM4.23561 18.0967C4.07652 18.2979 4.11066 18.59 4.31185 18.7491C4.51305 18.9081 4.80512 18.874 4.96421 18.6728L4.23561 18.0967ZM14.7625 4.78324L4.23561 18.0967L4.96421 18.6728L15.4911 5.35934L14.7625 4.78324Z" fill="#374151"/>
<path d="M4.59998 18.1117C4.34348 18.1117 4.13555 18.3197 4.13555 18.5762C4.13555 18.8327 4.34348 19.0406 4.59998 19.0406V18.1117ZM13.8884 18.5762C13.8884 19.9441 14.9974 21.0531 16.3654 21.0531C17.7333 21.0531 18.8423 19.9441 18.8423 18.5762C18.8423 17.2082 17.7333 16.0992 16.3654 16.0992C14.9974 16.0992 13.8884 17.2082 13.8884 18.5762ZM4.59998 19.0406H16.3654V18.1117H4.59998V19.0406Z" fill="#374151"/>
<circle cx="15.127" cy="5.07147" r="1.23846" fill="#E2E8F0"/>
<circle cx="16.3653" cy="18.6945" r="1.23846" fill="#E2E8F0"/>
<path d="M11.1019 10.335L11.4115 18.385" stroke="#374151" stroke-width="0.928846" stroke-linecap="round"/>
<path d="M34.6909 19L37.1056 4.45455H39.3002L37.198 17.1108H43.7889L43.4764 19H34.6909ZM50.4544 19.2202C49.4174 19.2202 48.551 18.9834 47.8549 18.5099C47.1589 18.0317 46.6689 17.3641 46.3848 16.5071C46.1054 15.6454 46.0581 14.6439 46.2427 13.5028C46.4226 12.3854 46.7849 11.41 47.3294 10.5767C47.8786 9.74337 48.5652 9.09706 49.389 8.63778C50.2176 8.1785 51.1386 7.94886 52.1518 7.94886C53.1887 7.94886 54.0529 8.18797 54.7441 8.66619C55.4402 9.14441 55.9302 9.81439 56.2143 10.6761C56.4984 11.5379 56.5481 12.5417 56.3635 13.6875C56.1835 14.7955 55.8166 15.7661 55.2626 16.5994C54.7134 17.428 54.0268 18.072 53.2029 18.5312C52.3791 18.9905 51.4629 19.2202 50.4544 19.2202ZM50.5751 17.4375C51.2569 17.4375 51.8511 17.2576 52.3578 16.8977C52.8691 16.5379 53.2858 16.0597 53.6078 15.4631C53.9297 14.8665 54.1499 14.2131 54.2683 13.5028C54.3772 12.8163 54.3748 12.1889 54.2612 11.6207C54.1523 11.0478 53.9155 10.5885 53.551 10.2429C53.1864 9.89725 52.6797 9.72443 52.0311 9.72443C51.3493 9.72443 50.7503 9.90672 50.2342 10.2713C49.7228 10.6312 49.3062 11.1117 48.9842 11.7131C48.667 12.3144 48.4515 12.9702 48.3379 13.6804C48.229 14.3622 48.229 14.9896 48.3379 15.5625C48.4468 16.1307 48.6835 16.5852 49.0481 16.9261C49.4127 17.267 49.9217 17.4375 50.5751 17.4375ZM61.0563 12.5227L59.9909 19H57.8674L60.2821 4.45455H62.3773L61.4824 9.86648H61.6174C61.963 9.27462 62.427 8.80824 63.0094 8.46733C63.5965 8.12169 64.3162 7.94886 65.1685 7.94886C65.9166 7.94886 66.544 8.10275 67.0506 8.41051C67.562 8.71828 67.9218 9.17756 68.1301 9.78835C68.3432 10.3944 68.3764 11.152 68.2296 12.0611L67.0648 19H64.9412L66.0492 12.3168C66.1818 11.5166 66.0776 10.8963 65.7367 10.456C65.3958 10.0109 64.8631 9.78835 64.1387 9.78835C63.632 9.78835 63.1633 9.89489 62.7324 10.108C62.3063 10.321 61.9464 10.6335 61.6529 11.0455C61.3593 11.4527 61.1605 11.9451 61.0563 12.5227ZM73.0378 19.2415C72.3465 19.2415 71.7428 19.1136 71.2267 18.858C70.7106 18.5975 70.3295 18.2211 70.0833 17.7287C69.8371 17.2363 69.7731 16.6326 69.8915 15.9176C69.9957 15.3021 70.1993 14.7955 70.5023 14.3977C70.8101 14 71.1841 13.6851 71.6245 13.4531C72.0648 13.2164 72.543 13.0388 73.0591 12.9205C73.5752 12.8021 74.0961 12.7145 74.6216 12.6577C75.2845 12.5819 75.8219 12.518 76.2338 12.4659C76.6505 12.4138 76.963 12.3333 77.1713 12.2244C77.3797 12.1108 77.5051 11.9261 77.5478 11.6705V11.6207C77.6472 11.0052 77.5572 10.527 77.2779 10.1861C77.0033 9.84044 76.525 9.66761 75.8432 9.66761C75.133 9.66761 74.5364 9.82386 74.0534 10.1364C73.5752 10.4489 73.2225 10.7992 72.9952 11.1875L71.0918 10.733C71.4327 10.0701 71.8659 9.53504 72.3915 9.12784C72.9218 8.71591 73.5018 8.41761 74.1316 8.23295C74.7613 8.04356 75.4052 7.94886 76.0634 7.94886C76.499 7.94886 76.9512 8.00095 77.4199 8.10511C77.8887 8.20455 78.3148 8.3892 78.6983 8.65909C79.0866 8.92898 79.3754 9.31487 79.5648 9.81676C79.7542 10.3139 79.7826 10.9602 79.65 11.7557L78.4498 19H76.3759L76.6316 17.5085H76.5463C76.3664 17.7831 76.1155 18.053 75.7935 18.3182C75.4763 18.5833 75.088 18.8035 74.6287 18.9787C74.1694 19.1539 73.6391 19.2415 73.0378 19.2415ZM73.7623 17.5369C74.3541 17.5369 74.8773 17.4209 75.3319 17.1889C75.7911 16.9569 76.1628 16.6539 76.4469 16.2798C76.731 15.901 76.9086 15.4962 76.9796 15.0653L77.214 13.6591C77.124 13.7348 76.9654 13.8035 76.7381 13.8651C76.5156 13.9266 76.2646 13.9811 75.9853 14.0284C75.7059 14.0758 75.4313 14.116 75.1614 14.1491C74.8962 14.1823 74.6761 14.2131 74.5009 14.2415C74.0842 14.2936 73.6936 14.3812 73.329 14.5043C72.9692 14.6274 72.6685 14.8049 72.427 15.0369C72.1855 15.2642 72.034 15.5672 71.9725 15.946C71.8873 16.4716 72.0127 16.8693 72.3489 17.1392C72.6898 17.4044 73.1609 17.5369 73.7623 17.5369ZM83.6433 19L82.2512 8.09091H84.4458L85.2484 16.1023H85.3549L88.835 8.09091H91.0297L91.8251 16.0668H91.9316L95.3904 8.09091H97.5851L92.5637 19H90.3975L89.4885 11.1236H89.3251L85.8024 19H83.6433ZM100.928 19.2415C100.237 19.2415 99.6335 19.1136 99.1174 18.858C98.6013 18.5975 98.2201 18.2211 97.9739 17.7287C97.7277 17.2363 97.6638 16.6326 97.7821 15.9176C97.8863 15.3021 98.0899 14.7955 98.3929 14.3977C98.7007 14 99.0748 13.6851 99.5151 13.4531C99.9554 13.2164 100.434 13.0388 100.95 12.9205C101.466 12.8021 101.987 12.7145 102.512 12.6577C103.175 12.5819 103.713 12.518 104.124 12.4659C104.541 12.4138 104.854 12.3333 105.062 12.2244C105.27 12.1108 105.396 11.9261 105.438 11.6705V11.6207C105.538 11.0052 105.448 10.527 105.169 10.1861C104.894 9.84044 104.416 9.66761 103.734 9.66761C103.024 9.66761 102.427 9.82386 101.944 10.1364C101.466 10.4489 101.113 10.7992 100.886 11.1875L98.9824 10.733C99.3233 10.0701 99.7566 9.53504 100.282 9.12784C100.812 8.71591 101.392 8.41761 102.022 8.23295C102.652 8.04356 103.296 7.94886 103.954 7.94886C104.39 7.94886 104.842 8.00095 105.311 8.10511C105.779 8.20455 106.205 8.3892 106.589 8.65909C106.977 8.92898 107.266 9.31487 107.455 9.81676C107.645 10.3139 107.673 10.9602 107.541 11.7557L106.34 19H104.267L104.522 17.5085H104.437C104.257 17.7831 104.006 18.053 103.684 18.3182C103.367 18.5833 102.979 18.8035 102.519 18.9787C102.06 19.1539 101.53 19.2415 100.928 19.2415ZM101.653 17.5369C102.245 17.5369 102.768 17.4209 103.222 17.1889C103.682 16.9569 104.053 16.6539 104.338 16.2798C104.622 15.901 104.799 15.4962 104.87 15.0653L105.105 13.6591C105.015 13.7348 104.856 13.8035 104.629 13.8651C104.406 13.9266 104.155 13.9811 103.876 14.0284C103.597 14.0758 103.322 14.116 103.052 14.1491C102.787 14.1823 102.567 14.2131 102.392 14.2415C101.975 14.2936 101.584 14.3812 101.22 14.5043C100.86 14.6274 100.559 14.8049 100.318 15.0369C100.076 15.2642 99.9247 15.5672 99.8631 15.946C99.7779 16.4716 99.9033 16.8693 100.24 17.1392C100.58 17.4044 101.052 17.5369 101.653 17.5369ZM113.707 4.45455L111.292 19H109.169L111.584 4.45455H113.707ZM118.688 4.45455L116.273 19H114.149L116.564 4.45455H118.688ZM122.276 19.2415C121.585 19.2415 120.981 19.1136 120.465 18.858C119.949 18.5975 119.568 18.2211 119.322 17.7287C119.075 17.2363 119.011 16.6326 119.13 15.9176C119.234 15.3021 119.438 14.7955 119.741 14.3977C120.048 14 120.422 13.6851 120.863 13.4531C121.303 13.2164 121.781 13.0388 122.297 12.9205C122.814 12.8021 123.334 12.7145 123.86 12.6577C124.523 12.5819 125.06 12.518 125.472 12.4659C125.889 12.4138 126.201 12.3333 126.41 12.2244C126.618 12.1108 126.743 11.9261 126.786 11.6705V11.6207C126.885 11.0052 126.796 10.527 126.516 10.1861C126.242 9.84044 125.763 9.66761 125.081 9.66761C124.371 9.66761 123.775 9.82386 123.292 10.1364C122.814 10.4489 122.461 10.7992 122.233 11.1875L120.33 10.733C120.671 10.0701 121.104 9.53504 121.63 9.12784C122.16 8.71591 122.74 8.41761 123.37 8.23295C124 8.04356 124.644 7.94886 125.302 7.94886C125.737 7.94886 126.189 8.00095 126.658 8.10511C127.127 8.20455 127.553 8.3892 127.937 8.65909C128.325 8.92898 128.614 9.31487 128.803 9.81676C128.992 10.3139 129.021 10.9602 128.888 11.7557L127.688 19H125.614L125.87 17.5085H125.785C125.605 17.7831 125.354 18.053 125.032 18.3182C124.715 18.5833 124.326 18.8035 123.867 18.9787C123.408 19.1539 122.877 19.2415 122.276 19.2415ZM123.001 17.5369C123.592 17.5369 124.116 17.4209 124.57 17.1889C125.029 16.9569 125.401 16.6539 125.685 16.2798C125.969 15.901 126.147 15.4962 126.218 15.0653L126.452 13.6591C126.362 13.7348 126.204 13.8035 125.976 13.8651C125.754 13.9266 125.503 13.9811 125.224 14.0284C124.944 14.0758 124.67 14.116 124.4 14.1491C124.135 14.1823 123.914 14.2131 123.739 14.2415C123.323 14.2936 122.932 14.3812 122.567 14.5043C122.207 14.6274 121.907 14.8049 121.665 15.0369C121.424 15.2642 121.272 15.5672 121.211 15.946C121.126 16.4716 121.251 16.8693 121.587 17.1392C121.928 17.4044 122.399 17.5369 123.001 17.5369Z" fill="#45464E"/>
</svg>
