<svg width="37" height="36" viewBox="0 0 37 36" fill="none" xmlns="http://www.w3.org/2000/svg">
<rect x="0.5" width="36" height="36" rx="8" fill="#E2E8F0"/>
<path fill-rule="evenodd" clip-rule="evenodd" d="M22.2614 25.9167H15.3049C12.7496 25.9167 10.7893 24.9937 11.3461 21.279L11.9945 16.2447C12.3377 14.3911 13.52 13.6818 14.5574 13.6818H23.0395C24.0921 13.6818 25.2058 14.4445 25.6024 16.2447L26.2508 21.279C26.7237 24.5742 24.8167 25.9167 22.2614 25.9167Z" stroke="#130F26" stroke-width="1.5" stroke-linecap="round" stroke-linejoin="round"/>
<path d="M22.3759 13.4987C22.3759 11.5103 20.764 9.89835 18.7756 9.89835V9.89835C17.8181 9.89429 16.8984 10.2718 16.2199 10.9474C15.5414 11.6231 15.16 12.5411 15.16 13.4987V13.4987" stroke="#130F26" stroke-width="1.5" stroke-linecap="round" stroke-linejoin="round"/>
<path d="M21.247 17.2515H21.2088" stroke="#130F26" stroke-width="1.5" stroke-linecap="round" stroke-linejoin="round"/>
<path d="M16.3881 17.2515H16.3499" stroke="#130F26" stroke-width="1.5" stroke-linecap="round" stroke-linejoin="round"/>
</svg>
