<svg width="36" height="36" viewBox="0 0 36 36" fill="none" xmlns="http://www.w3.org/2000/svg">
<rect width="36" height="36" rx="8" fill="#E2E8F0"/>
<g clip-path="url(#clip0_795_6466)">
<path d="M24.6666 26.3333C25.1269 26.3333 25.5 25.9602 25.5 25.5C25.5 25.0397 25.1269 24.6666 24.6666 24.6666C24.2064 24.6666 23.8333 25.0397 23.8333 25.5C23.8333 25.9602 24.2064 26.3333 24.6666 26.3333Z" stroke="black" stroke-width="2" stroke-linecap="round" stroke-linejoin="round"/>
<path d="M15.5 26.3333C15.9603 26.3333 16.3334 25.9602 16.3334 25.5C16.3334 25.0397 15.9603 24.6666 15.5 24.6666C15.0398 24.6666 14.6667 25.0397 14.6667 25.5C14.6667 25.9602 15.0398 26.3333 15.5 26.3333Z" stroke="black" stroke-width="2" stroke-linecap="round" stroke-linejoin="round"/>
<path d="M8.83331 8.83337H12.1666L14.4 19.9917C14.4762 20.3754 14.6849 20.72 14.9896 20.9653C15.2943 21.2106 15.6756 21.3409 16.0666 21.3334H24.1666C24.5577 21.3409 24.939 21.2106 25.2437 20.9653C25.5484 20.72 25.7571 20.3754 25.8333 19.9917L27.1666 13H13" stroke="black" stroke-width="2" stroke-linecap="round" stroke-linejoin="round"/>
</g>
<defs>
<clipPath id="clip0_795_6466">
<rect width="20" height="20" fill="white" transform="translate(8 8)"/>
</clipPath>
</defs>
</svg>
