<svg width="36" height="36" viewBox="0 0 36 36" fill="none" xmlns="http://www.w3.org/2000/svg">
<rect width="36" height="36" rx="8" fill="#E2E8F0"/>
<path fill-rule="evenodd" clip-rule="evenodd" d="M15.9929 20.6722C19.0671 20.6722 21.6946 21.1381 21.6946 22.9989C21.6946 24.8597 19.0846 25.3389 15.9929 25.3389C12.9179 25.3389 10.2912 24.8772 10.2912 23.0156C10.2912 21.1539 12.9004 20.6722 15.9929 20.6722Z" stroke="#1C1D22" stroke-width="1.5" stroke-linecap="round" stroke-linejoin="round"/>
<path fill-rule="evenodd" clip-rule="evenodd" d="M15.9929 18.0165C13.9746 18.0165 12.3379 16.3806 12.3379 14.3623C12.3379 12.344 13.9746 10.7081 15.9929 10.7081C18.0104 10.7081 19.6471 12.344 19.6471 14.3623C19.6546 16.3731 18.0296 18.009 16.0187 18.0165H15.9929Z" stroke="#1C1D22" stroke-width="1.5" stroke-linecap="round" stroke-linejoin="round"/>
<path d="M21.7359 17.068C23.0701 16.8805 24.0976 15.7355 24.1001 14.3497C24.1001 12.9839 23.1042 11.8505 21.7984 11.6364" stroke="#1C1D22" stroke-width="1.5" stroke-linecap="round" stroke-linejoin="round"/>
<path d="M23.4962 20.2769C24.7887 20.4694 25.6912 20.9227 25.6912 21.856C25.6912 22.4985 25.2662 22.9152 24.5795 23.176" stroke="#1C1D22" stroke-width="1.5" stroke-linecap="round" stroke-linejoin="round"/>
</svg>
