<svg width="36" height="36" viewBox="0 0 36 36" fill="none" xmlns="http://www.w3.org/2000/svg">
<rect width="36" height="36" rx="8" fill="#E2E8F0"/>
<path fill-rule="evenodd" clip-rule="evenodd" d="M21.7615 25.9166H14.805C12.2496 25.9166 10.2893 24.9936 10.8461 21.2789L11.4945 16.2446C11.8377 14.391 13.0201 13.6816 14.0574 13.6816H22.5395C23.5921 13.6816 24.7058 14.4444 25.1024 16.2446L25.7508 21.2789C26.2237 24.5741 24.3168 25.9166 21.7615 25.9166Z" stroke="#130F26" stroke-width="1.5" stroke-linecap="round" stroke-linejoin="round"/>
<path d="M21.8759 13.4988C21.8759 11.5104 20.264 9.89847 18.2756 9.89847V9.89847C17.3181 9.89441 16.3984 10.2719 15.7199 10.9476C15.0414 11.6232 14.66 12.5413 14.66 13.4988V13.4988" stroke="#130F26" stroke-width="1.5" stroke-linecap="round" stroke-linejoin="round"/>
<path d="M20.747 17.2515H20.7088" stroke="#130F26" stroke-width="1.5" stroke-linecap="round" stroke-linejoin="round"/>
<path d="M15.8881 17.2515H15.8499" stroke="#130F26" stroke-width="1.5" stroke-linecap="round" stroke-linejoin="round"/>
</svg>
