<svg width="36" height="36" viewBox="0 0 36 36" fill="none" xmlns="http://www.w3.org/2000/svg">
<rect width="36" height="36" rx="8" fill="#FFCC91" fill-opacity="0.16"/>
<g clip-path="url(#clip0_620_22222)">
<path d="M24.6666 26.3337C25.1269 26.3337 25.5 25.9606 25.5 25.5003C25.5 25.0401 25.1269 24.667 24.6666 24.667C24.2064 24.667 23.8333 25.0401 23.8333 25.5003C23.8333 25.9606 24.2064 26.3337 24.6666 26.3337Z" stroke="black" stroke-width="2" stroke-linecap="round" stroke-linejoin="round"/>
<path d="M15.5 26.3337C15.9603 26.3337 16.3334 25.9606 16.3334 25.5003C16.3334 25.0401 15.9603 24.667 15.5 24.667C15.0398 24.667 14.6667 25.0401 14.6667 25.5003C14.6667 25.9606 15.0398 26.3337 15.5 26.3337Z" stroke="black" stroke-width="2" stroke-linecap="round" stroke-linejoin="round"/>
<path d="M8.83331 8.83301H12.1666L14.4 19.9913C14.4762 20.375 14.6849 20.7196 14.9896 20.9649C15.2943 21.2102 15.6756 21.3405 16.0666 21.333H24.1666C24.5577 21.3405 24.939 21.2102 25.2437 20.9649C25.5484 20.7196 25.7571 20.375 25.8333 19.9913L27.1666 12.9997H13" stroke="black" stroke-width="2" stroke-linecap="round" stroke-linejoin="round"/>
</g>
<defs>
<clipPath id="clip0_620_22222">
<rect width="20" height="20" fill="white" transform="translate(8 8)"/>
</clipPath>
</defs>
</svg>
