<svg width="36" height="36" viewBox="0 0 36 36" fill="none" xmlns="http://www.w3.org/2000/svg">
<rect width="36" height="36" rx="8" fill="#E2E8F0"/>
<path fill-rule="evenodd" clip-rule="evenodd" d="M22.3982 19.574C22.9605 19.574 23.4324 20.0381 23.3465 20.5933C22.8421 23.86 20.0456 26.2854 16.6728 26.2854C12.9412 26.2854 9.91663 23.2609 9.91663 19.5302C9.91663 16.4565 12.2517 13.5933 14.8807 12.946C15.4456 12.8065 16.0245 13.2039 16.0245 13.7854C16.0245 17.7258 16.157 18.7451 16.9052 19.2995C17.6535 19.8539 18.5333 19.574 22.3982 19.574Z" stroke="#374151" stroke-width="1.5" stroke-linecap="round" stroke-linejoin="round"/>
<path fill-rule="evenodd" clip-rule="evenodd" d="M26.077 16.293C26.1218 13.7614 23.0121 9.68072 19.2226 9.75089C18.9279 9.75616 18.6919 10.0018 18.6788 10.2956C18.5832 12.3772 18.7121 15.0746 18.784 16.2974C18.806 16.6781 19.1051 16.9772 19.4849 16.9991C20.7419 17.0711 23.5376 17.1693 25.5893 16.8588C25.8683 16.8167 26.0726 16.5746 26.077 16.293Z" stroke="#374151" stroke-width="1.5" stroke-linecap="round" stroke-linejoin="round"/>
</svg>
