<svg width="36" height="36" viewBox="0 0 36 36" fill="none" xmlns="http://www.w3.org/2000/svg">
<rect width="36" height="36" rx="8" fill="#E5E7EB"/>
<path fill-rule="evenodd" clip-rule="evenodd" d="M15.9929 20.6719C19.0671 20.6719 21.6946 21.1377 21.6946 22.9985C21.6946 24.8594 19.0846 25.3385 15.9929 25.3385C12.9179 25.3385 10.2913 24.8769 10.2913 23.0152C10.2913 21.1535 12.9004 20.6719 15.9929 20.6719Z" stroke="#1C1D22" stroke-width="1.5" stroke-linecap="round" stroke-linejoin="round"/>
<path fill-rule="evenodd" clip-rule="evenodd" d="M15.993 18.0163C13.9746 18.0163 12.338 16.3805 12.338 14.3622C12.338 12.3438 13.9746 10.708 15.993 10.708C18.0105 10.708 19.6471 12.3438 19.6471 14.3622C19.6546 16.373 18.0296 18.0088 16.0188 18.0163H15.993Z" stroke="#1C1D22" stroke-width="1.5" stroke-linecap="round" stroke-linejoin="round"/>
<path d="M21.7359 17.0674C23.0701 16.8799 24.0976 15.7349 24.1001 14.3491C24.1001 12.9832 23.1042 11.8499 21.7984 11.6357" stroke="#1C1D22" stroke-width="1.5" stroke-linecap="round" stroke-linejoin="round"/>
<path d="M23.4962 20.2764C24.7887 20.4689 25.6912 20.9222 25.6912 21.8555C25.6912 22.498 25.2662 22.9147 24.5795 23.1755" stroke="#1C1D22" stroke-width="1.5" stroke-linecap="round" stroke-linejoin="round"/>
</svg>
